<?xml version="1.0" encoding="UTF-8" standalone="no"?>
<!DOCTYPE svg PUBLIC "-//W3C//DTD SVG 1.1//EN"
 "http://www.w3.org/Graphics/SVG/1.1/DTD/svg11.dtd">
<!-- Generated by graphviz version 2.43.0 (0)
 -->
<!-- Title: pipeline Pages: 1 -->
<svg width="2576pt" height="228pt"
 viewBox="0.00 0.00 2576.00 228.00" xmlns="http://www.w3.org/2000/svg" xmlns:xlink="http://www.w3.org/1999/xlink">
<g id="graph0" class="graph" transform="scale(1 1) rotate(0) translate(4 224)">
<title>pipeline</title>
<polygon fill="white" stroke="transparent" points="-4,4 -4,-224 2572,-224 2572,4 -4,4"/>
<text text-anchor="middle" x="1284" y="-208" font-family="sans" font-size="10.00">&lt;GstPipeline&gt;</text>
<text text-anchor="middle" x="1284" y="-197" font-family="sans" font-size="10.00">pipeline0</text>
<text text-anchor="middle" x="1284" y="-186" font-family="sans" font-size="10.00">[=] &#45;&gt; [0]</text>
<g id="clust1" class="cluster">
<title>cluster_rtspclientsink0_0x5647d5775530</title>
<path fill="#ffffff" stroke="black" d="M2410,-39C2410,-39 2556,-39 2556,-39 2562,-39 2568,-45 2568,-51 2568,-51 2568,-150 2568,-150 2568,-156 2562,-162 2556,-162 2556,-162 2410,-162 2410,-162 2404,-162 2398,-156 2398,-150 2398,-150 2398,-51 2398,-51 2398,-45 2404,-39 2410,-39"/>
<text text-anchor="middle" x="2483" y="-151.6" font-family="Bitstream Vera Sans" font-size="8.00">GstRTSPClientSink</text>
<text text-anchor="middle" x="2483" y="-142.6" font-family="Bitstream Vera Sans" font-size="8.00">rtspclientsink0</text>
<text text-anchor="middle" x="2483" y="-133.6" font-family="Bitstream Vera Sans" font-size="8.00">[=]</text>
<text text-anchor="middle" x="2483" y="-124.6" font-family="Bitstream Vera Sans" font-size="8.00">parent=(GstPipeline) pipeline0</text>
<text text-anchor="middle" x="2483" y="-115.6" font-family="Bitstream Vera Sans" font-size="8.00">location=&quot;rtsp://127.0.0.1:8554/test&quot;</text>
<text text-anchor="middle" x="2483" y="-106.6" font-family="Bitstream Vera Sans" font-size="8.00">proxy&#45;id=NULL</text>
<text text-anchor="middle" x="2483" y="-97.6" font-family="Bitstream Vera Sans" font-size="8.00">proxy&#45;pw=NULL</text>
</g>
<g id="clust2" class="cluster">
<title>cluster_rtspclientsink0_0x5647d5775530_sink</title>
</g>
<g id="clust5" class="cluster">
<title>cluster_x264enc0_0x5647d576fd00</title>
<path fill="#aaffaa" stroke="black" d="M1958,-39C1958,-39 2107,-39 2107,-39 2113,-39 2119,-45 2119,-51 2119,-51 2119,-123 2119,-123 2119,-129 2113,-135 2107,-135 2107,-135 1958,-135 1958,-135 1952,-135 1946,-129 1946,-123 1946,-123 1946,-51 1946,-51 1946,-45 1952,-39 1958,-39"/>
<text text-anchor="middle" x="2032.5" y="-124.6" font-family="Bitstream Vera Sans" font-size="8.00">GstX264Enc</text>
<text text-anchor="middle" x="2032.5" y="-115.6" font-family="Bitstream Vera Sans" font-size="8.00">x264enc0</text>
<text text-anchor="middle" x="2032.5" y="-106.6" font-family="Bitstream Vera Sans" font-size="8.00">[=]</text>
<text text-anchor="middle" x="2032.5" y="-97.6" font-family="Bitstream Vera Sans" font-size="8.00">parent=(GstPipeline) pipeline0</text>
</g>
<g id="clust6" class="cluster">
<title>cluster_x264enc0_0x5647d576fd00_sink</title>
</g>
<g id="clust7" class="cluster">
<title>cluster_x264enc0_0x5647d576fd00_src</title>
</g>
<g id="clust8" class="cluster">
<title>cluster_videoconvert0_0x5647d5769f80</title>
<path fill="#aaffaa" stroke="black" d="M1522,-39C1522,-39 1671,-39 1671,-39 1677,-39 1683,-45 1683,-51 1683,-51 1683,-132 1683,-132 1683,-138 1677,-144 1671,-144 1671,-144 1522,-144 1522,-144 1516,-144 1510,-138 1510,-132 1510,-132 1510,-51 1510,-51 1510,-45 1516,-39 1522,-39"/>
<text text-anchor="middle" x="1596.5" y="-133.6" font-family="Bitstream Vera Sans" font-size="8.00">GstVideoConvert</text>
<text text-anchor="middle" x="1596.5" y="-124.6" font-family="Bitstream Vera Sans" font-size="8.00">videoconvert0</text>
<text text-anchor="middle" x="1596.5" y="-115.6" font-family="Bitstream Vera Sans" font-size="8.00">[=]</text>
<text text-anchor="middle" x="1596.5" y="-106.6" font-family="Bitstream Vera Sans" font-size="8.00">parent=(GstPipeline) pipeline0</text>
<text text-anchor="middle" x="1596.5" y="-97.6" font-family="Bitstream Vera Sans" font-size="8.00">qos=TRUE</text>
</g>
<g id="clust9" class="cluster">
<title>cluster_videoconvert0_0x5647d5769f80_sink</title>
</g>
<g id="clust10" class="cluster">
<title>cluster_videoconvert0_0x5647d5769f80_src</title>
</g>
<g id="clust11" class="cluster">
<title>cluster_avdec_h264_0_0x5647d5753000</title>
<path fill="#aaffaa" stroke="black" d="M1086,-39C1086,-39 1235,-39 1235,-39 1241,-39 1247,-45 1247,-51 1247,-51 1247,-123 1247,-123 1247,-129 1241,-135 1235,-135 1235,-135 1086,-135 1086,-135 1080,-135 1074,-129 1074,-123 1074,-123 1074,-51 1074,-51 1074,-45 1080,-39 1086,-39"/>
<text text-anchor="middle" x="1160.5" y="-124.6" font-family="Bitstream Vera Sans" font-size="8.00">avdec_h264</text>
<text text-anchor="middle" x="1160.5" y="-115.6" font-family="Bitstream Vera Sans" font-size="8.00">avdec_h264&#45;0</text>
<text text-anchor="middle" x="1160.5" y="-106.6" font-family="Bitstream Vera Sans" font-size="8.00">[=]</text>
<text text-anchor="middle" x="1160.5" y="-97.6" font-family="Bitstream Vera Sans" font-size="8.00">parent=(GstPipeline) pipeline0</text>
</g>
<g id="clust12" class="cluster">
<title>cluster_avdec_h264_0_0x5647d5753000_sink</title>
</g>
<g id="clust13" class="cluster">
<title>cluster_avdec_h264_0_0x5647d5753000_src</title>
</g>
<g id="clust14" class="cluster">
<title>cluster_qtdemux0_0x5647d56ac220</title>
<path fill="#aaffaa" stroke="black" d="M650,-39C650,-39 799,-39 799,-39 805,-39 811,-45 811,-51 811,-51 811,-150 811,-150 811,-156 805,-162 799,-162 799,-162 650,-162 650,-162 644,-162 638,-156 638,-150 638,-150 638,-51 638,-51 638,-45 644,-39 650,-39"/>
<text text-anchor="middle" x="724.5" y="-151.6" font-family="Bitstream Vera Sans" font-size="8.00">GstQTDemux</text>
<text text-anchor="middle" x="724.5" y="-142.6" font-family="Bitstream Vera Sans" font-size="8.00">qtdemux0</text>
<text text-anchor="middle" x="724.5" y="-133.6" font-family="Bitstream Vera Sans" font-size="8.00">[=]</text>
<text text-anchor="middle" x="724.5" y="-124.6" font-family="Bitstream Vera Sans" font-size="8.00">parent=(GstPipeline) pipeline0</text>
</g>
<g id="clust15" class="cluster">
<title>cluster_qtdemux0_0x5647d56ac220_sink</title>
</g>
<g id="clust16" class="cluster">
<title>cluster_qtdemux0_0x5647d56ac220_src</title>
</g>
<g id="clust17" class="cluster">
<title>cluster_filesrc0_0x5647d56982b0</title>
<path fill="#ffaaaa" stroke="black" d="M102.5,-66C102.5,-66 257.5,-66 257.5,-66 263.5,-66 269.5,-72 269.5,-78 269.5,-78 269.5,-159 269.5,-159 269.5,-165 263.5,-171 257.5,-171 257.5,-171 102.5,-171 102.5,-171 96.5,-171 90.5,-165 90.5,-159 90.5,-159 90.5,-78 90.5,-78 90.5,-72 96.5,-66 102.5,-66"/>
<text text-anchor="middle" x="180" y="-160.6" font-family="Bitstream Vera Sans" font-size="8.00">GstFileSrc</text>
<text text-anchor="middle" x="180" y="-151.6" font-family="Bitstream Vera Sans" font-size="8.00">filesrc0</text>
<text text-anchor="middle" x="180" y="-142.6" font-family="Bitstream Vera Sans" font-size="8.00">[=]</text>
<text text-anchor="middle" x="180" y="-133.6" font-family="Bitstream Vera Sans" font-size="8.00">parent=(GstPipeline) pipeline0</text>
<text text-anchor="middle" x="180" y="-124.6" font-family="Bitstream Vera Sans" font-size="8.00">location=&quot;Murat/ElephantsDream.mp4&quot;</text>
</g>
<g id="clust18" class="cluster">
<title>cluster_filesrc0_0x5647d56982b0_src</title>
</g>
<!-- legend -->
<g id="node1" class="node">
<title>legend</title>
<polygon fill="lightgrey" stroke="black" points="359,-58 0,-58 0,0 359,0 359,-58"/>
<text text-anchor="start" x="4" y="-46.8" font-family="sans" font-size="9.00">Legend</text>
<text text-anchor="start" x="4" y="-36.8" font-family="sans" font-size="9.00">Element&#45;States: [~] void&#45;pending, [0] null, [&#45;] ready, [=] paused, [&gt;] playing</text>
<text text-anchor="start" x="4" y="-26.8" font-family="sans" font-size="9.00">Pad&#45;Activation: [&#45;] none, [&gt;] push, [&lt;] pull</text>
<text text-anchor="start" x="4" y="-16.8" font-family="sans" font-size="9.00">Pad&#45;Flags: [b]locked, [f]lushing, [b]locking, [E]OS; upper&#45;case is set</text>
<text text-anchor="start" x="4" y="-6.8" font-family="sans" font-size="9.00">Pad&#45;Task: [T] has started task, [t] has paused task</text>
</g>
<!-- rtspclientsink0_0x5647d5775530_sink_0_0x5647d5780100 -->
<g id="node2" class="node">
<title>rtspclientsink0_0x5647d5775530_sink_0_0x5647d5780100</title>
<polygon fill="#ddddff" stroke="black" stroke-dasharray="5,2" points="2510,-75 2456,-75 2456,-55 2510,-55 2510,-75"/>
<text text-anchor="middle" x="2483" y="-67.8" font-family="sans" font-size="9.00">sink_0</text>
<text text-anchor="middle" x="2483" y="-57.8" font-family="sans" font-size="9.00">[&gt;][bfb]</text>
</g>
<!-- x264enc0_0x5647d576fd00_sink_0x5647d569ae30 -->
<g id="node3" class="node">
<title>x264enc0_0x5647d576fd00_sink_0x5647d569ae30</title>
<polygon fill="#aaaaff" stroke="black" points="2016,-75 1962,-75 1962,-55 2016,-55 2016,-75"/>
<text text-anchor="middle" x="1989" y="-67.8" font-family="sans" font-size="9.00">sink</text>
<text text-anchor="middle" x="1989" y="-57.8" font-family="sans" font-size="9.00">[&gt;][bfb]</text>
</g>
<!-- x264enc0_0x5647d576fd00_src_0x5647d569b080 -->
<g id="node4" class="node">
<title>x264enc0_0x5647d576fd00_src_0x5647d569b080</title>
<polygon fill="#ffaaaa" stroke="black" points="2103,-75 2049,-75 2049,-55 2103,-55 2103,-75"/>
<text text-anchor="middle" x="2076" y="-67.8" font-family="sans" font-size="9.00">src</text>
<text text-anchor="middle" x="2076" y="-57.8" font-family="sans" font-size="9.00">[&gt;][bfb]</text>
</g>
<!-- x264enc0_0x5647d576fd00_sink_0x5647d569ae30&#45;&gt;x264enc0_0x5647d576fd00_src_0x5647d569b080 -->
<!-- x264enc0_0x5647d576fd00_src_0x5647d569b080&#45;&gt;rtspclientsink0_0x5647d5775530_sink_0_0x5647d5780100 -->
<g id="edge2" class="edge">
<title>x264enc0_0x5647d576fd00_src_0x5647d569b080&#45;&gt;rtspclientsink0_0x5647d5775530_sink_0_0x5647d5780100</title>
<path fill="none" stroke="black" d="M2103.26,-65C2173.38,-65 2365.14,-65 2445.65,-65"/>
<polygon fill="black" stroke="black" points="2445.8,-68.5 2455.8,-65 2445.8,-61.5 2445.8,-68.5"/>
<text text-anchor="middle" x="2258.5" y="-67.8" font-family="monospace" font-size="9.00"> &#160;&#160;&#160;&#160;&#160;&#160;&#160;&#160;&#160;&#160;&#160;&#160;&#160;&#160;&#160;&#160;&#160;&#160;&#160;&#160;&#160;&#160;&#160;&#160;&#160;&#160;&#160;&#160;&#160;&#160;&#160;&#160;&#160;&#160;&#160;&#160;&#160;&#160;&#160;&#160;&#160;&#160;&#160;&#160;&#160;&#160;&#160;&#160;&#160;</text>
<text text-anchor="middle" x="2355.8" y="-63.7" font-family="monospace" font-size="6.00">ANY</text>
<text text-anchor="start" x="2114.76" y="-84.7" font-family="monospace" font-size="6.00">video/x&#45;h264</text>
<text text-anchor="start" x="2114.76" y="-77.7" font-family="monospace" font-size="6.00"> &#160;&#160;&#160;&#160;&#160;&#160;&#160;&#160;&#160;&#160;framerate: [ 0/1, 2147483647/1 ]</text>
<text text-anchor="start" x="2114.76" y="-70.7" font-family="monospace" font-size="6.00"> &#160;&#160;&#160;&#160;&#160;&#160;&#160;&#160;&#160;&#160;&#160;&#160;&#160;&#160;width: [ 1, 2147483647 ]</text>
<text text-anchor="start" x="2114.76" y="-63.7" font-family="monospace" font-size="6.00"> &#160;&#160;&#160;&#160;&#160;&#160;&#160;&#160;&#160;&#160;&#160;&#160;&#160;height: [ 1, 2147483647 ]</text>
<text text-anchor="start" x="2114.76" y="-56.7" font-family="monospace" font-size="6.00"> &#160;&#160;&#160;&#160;&#160;&#160;stream&#45;format: { (string)avc, (stri... }</text>
<text text-anchor="start" x="2114.76" y="-49.7" font-family="monospace" font-size="6.00"> &#160;&#160;&#160;&#160;&#160;&#160;&#160;&#160;&#160;&#160;alignment: au</text>
<text text-anchor="start" x="2114.76" y="-42.7" font-family="monospace" font-size="6.00"> &#160;&#160;&#160;&#160;&#160;&#160;&#160;&#160;&#160;&#160;&#160;&#160;profile: { (string)high&#45;4:4:4... }</text>
</g>
<!-- videoconvert0_0x5647d5769f80_sink_0x5647d569a990 -->
<g id="node5" class="node">
<title>videoconvert0_0x5647d5769f80_sink_0x5647d569a990</title>
<polygon fill="#aaaaff" stroke="black" points="1580,-75 1526,-75 1526,-55 1580,-55 1580,-75"/>
<text text-anchor="middle" x="1553" y="-67.8" font-family="sans" font-size="9.00">sink</text>
<text text-anchor="middle" x="1553" y="-57.8" font-family="sans" font-size="9.00">[&gt;][bfb]</text>
</g>
<!-- videoconvert0_0x5647d5769f80_src_0x5647d569abe0 -->
<g id="node6" class="node">
<title>videoconvert0_0x5647d5769f80_src_0x5647d569abe0</title>
<polygon fill="#ffaaaa" stroke="black" points="1667,-75 1613,-75 1613,-55 1667,-55 1667,-75"/>
<text text-anchor="middle" x="1640" y="-67.8" font-family="sans" font-size="9.00">src</text>
<text text-anchor="middle" x="1640" y="-57.8" font-family="sans" font-size="9.00">[&gt;][bfb]</text>
</g>
<!-- videoconvert0_0x5647d5769f80_sink_0x5647d569a990&#45;&gt;videoconvert0_0x5647d5769f80_src_0x5647d569abe0 -->
<!-- videoconvert0_0x5647d5769f80_src_0x5647d569abe0&#45;&gt;x264enc0_0x5647d576fd00_sink_0x5647d569ae30 -->
<g id="edge4" class="edge">
<title>videoconvert0_0x5647d5769f80_src_0x5647d569abe0&#45;&gt;x264enc0_0x5647d576fd00_sink_0x5647d569ae30</title>
<path fill="none" stroke="black" d="M1667.08,-65C1728.25,-65 1881.06,-65 1951.45,-65"/>
<polygon fill="black" stroke="black" points="1951.62,-68.5 1961.62,-65 1951.62,-61.5 1951.62,-68.5"/>
<text text-anchor="start" x="1691" y="-167.8" font-family="monospace" font-size="9.00">video/x&#45;raw</text>
<text text-anchor="start" x="1691" y="-157.8" font-family="monospace" font-size="9.00"> &#160;&#160;&#160;&#160;&#160;&#160;&#160;&#160;&#160;&#160;&#160;&#160;&#160;format: I420</text>
<text text-anchor="start" x="1691" y="-147.8" font-family="monospace" font-size="9.00"> &#160;&#160;&#160;&#160;&#160;&#160;&#160;&#160;&#160;&#160;&#160;&#160;&#160;&#160;width: 1280</text>
<text text-anchor="start" x="1691" y="-137.8" font-family="monospace" font-size="9.00"> &#160;&#160;&#160;&#160;&#160;&#160;&#160;&#160;&#160;&#160;&#160;&#160;&#160;height: 720</text>
<text text-anchor="start" x="1691" y="-127.8" font-family="monospace" font-size="9.00"> &#160;&#160;&#160;&#160;&#160;interlace&#45;mode: progressive</text>
<text text-anchor="start" x="1691" y="-117.8" font-family="monospace" font-size="9.00"> &#160;&#160;&#160;&#160;&#160;multiview&#45;mode: mono</text>
<text text-anchor="start" x="1691" y="-107.8" font-family="monospace" font-size="9.00"> &#160;&#160;&#160;&#160;multiview&#45;flags: 0:ffffffff:/right&#45;view...</text>
<text text-anchor="start" x="1691" y="-97.8" font-family="monospace" font-size="9.00"> &#160;pixel&#45;aspect&#45;ratio: 1/1</text>
<text text-anchor="start" x="1691" y="-87.8" font-family="monospace" font-size="9.00"> &#160;&#160;&#160;&#160;&#160;&#160;&#160;&#160;chroma&#45;site: mpeg2</text>
<text text-anchor="start" x="1691" y="-77.8" font-family="monospace" font-size="9.00"> &#160;&#160;&#160;&#160;&#160;&#160;&#160;&#160;colorimetry: bt709</text>
<text text-anchor="start" x="1691" y="-67.8" font-family="monospace" font-size="9.00"> &#160;&#160;&#160;&#160;&#160;&#160;&#160;&#160;&#160;&#160;framerate: 24/1</text>
</g>
<!-- avdec_h264_0_0x5647d5753000_sink_0x5647d569a4f0 -->
<g id="node7" class="node">
<title>avdec_h264_0_0x5647d5753000_sink_0x5647d569a4f0</title>
<polygon fill="#aaaaff" stroke="black" points="1144,-75 1090,-75 1090,-55 1144,-55 1144,-75"/>
<text text-anchor="middle" x="1117" y="-67.8" font-family="sans" font-size="9.00">sink</text>
<text text-anchor="middle" x="1117" y="-57.8" font-family="sans" font-size="9.00">[&gt;][bfb]</text>
</g>
<!-- avdec_h264_0_0x5647d5753000_src_0x5647d569a740 -->
<g id="node8" class="node">
<title>avdec_h264_0_0x5647d5753000_src_0x5647d569a740</title>
<polygon fill="#ffaaaa" stroke="black" points="1231,-75 1177,-75 1177,-55 1231,-55 1231,-75"/>
<text text-anchor="middle" x="1204" y="-67.8" font-family="sans" font-size="9.00">src</text>
<text text-anchor="middle" x="1204" y="-57.8" font-family="sans" font-size="9.00">[&gt;][bfb]</text>
</g>
<!-- avdec_h264_0_0x5647d5753000_sink_0x5647d569a4f0&#45;&gt;avdec_h264_0_0x5647d5753000_src_0x5647d569a740 -->
<!-- avdec_h264_0_0x5647d5753000_src_0x5647d569a740&#45;&gt;videoconvert0_0x5647d5769f80_sink_0x5647d569a990 -->
<g id="edge6" class="edge">
<title>avdec_h264_0_0x5647d5753000_src_0x5647d569a740&#45;&gt;videoconvert0_0x5647d5769f80_sink_0x5647d569a990</title>
<path fill="none" stroke="black" d="M1231.08,-65C1292.25,-65 1445.06,-65 1515.45,-65"/>
<polygon fill="black" stroke="black" points="1515.62,-68.5 1525.62,-65 1515.62,-61.5 1515.62,-68.5"/>
<text text-anchor="start" x="1255" y="-167.8" font-family="monospace" font-size="9.00">video/x&#45;raw</text>
<text text-anchor="start" x="1255" y="-157.8" font-family="monospace" font-size="9.00"> &#160;&#160;&#160;&#160;&#160;&#160;&#160;&#160;&#160;&#160;&#160;&#160;&#160;format: I420</text>
<text text-anchor="start" x="1255" y="-147.8" font-family="monospace" font-size="9.00"> &#160;&#160;&#160;&#160;&#160;&#160;&#160;&#160;&#160;&#160;&#160;&#160;&#160;&#160;width: 1280</text>
<text text-anchor="start" x="1255" y="-137.8" font-family="monospace" font-size="9.00"> &#160;&#160;&#160;&#160;&#160;&#160;&#160;&#160;&#160;&#160;&#160;&#160;&#160;height: 720</text>
<text text-anchor="start" x="1255" y="-127.8" font-family="monospace" font-size="9.00"> &#160;&#160;&#160;&#160;&#160;interlace&#45;mode: progressive</text>
<text text-anchor="start" x="1255" y="-117.8" font-family="monospace" font-size="9.00"> &#160;&#160;&#160;&#160;&#160;multiview&#45;mode: mono</text>
<text text-anchor="start" x="1255" y="-107.8" font-family="monospace" font-size="9.00"> &#160;&#160;&#160;&#160;multiview&#45;flags: 0:ffffffff:/right&#45;view...</text>
<text text-anchor="start" x="1255" y="-97.8" font-family="monospace" font-size="9.00"> &#160;pixel&#45;aspect&#45;ratio: 1/1</text>
<text text-anchor="start" x="1255" y="-87.8" font-family="monospace" font-size="9.00"> &#160;&#160;&#160;&#160;&#160;&#160;&#160;&#160;chroma&#45;site: mpeg2</text>
<text text-anchor="start" x="1255" y="-77.8" font-family="monospace" font-size="9.00"> &#160;&#160;&#160;&#160;&#160;&#160;&#160;&#160;colorimetry: bt709</text>
<text text-anchor="start" x="1255" y="-67.8" font-family="monospace" font-size="9.00"> &#160;&#160;&#160;&#160;&#160;&#160;&#160;&#160;&#160;&#160;framerate: 24/1</text>
</g>
<!-- qtdemux0_0x5647d56ac220_sink_0x5647d569a2a0 -->
<g id="node9" class="node">
<title>qtdemux0_0x5647d56ac220_sink_0x5647d569a2a0</title>
<polygon fill="#aaaaff" stroke="black" points="708,-102 654,-102 654,-82 708,-82 708,-102"/>
<text text-anchor="middle" x="681" y="-94.8" font-family="sans" font-size="9.00">sink</text>
<text text-anchor="middle" x="681" y="-84.8" font-family="sans" font-size="9.00">[&lt;][bfb][T]</text>
</g>
<!-- qtdemux0_0x5647d56ac220_audio_0_0x5647d569b2d0 -->
<g id="node10" class="node">
<title>qtdemux0_0x5647d56ac220_audio_0_0x5647d569b2d0</title>
<polygon fill="#ffaaaa" stroke="black" stroke-dasharray="1,5" points="795,-102 741,-102 741,-82 795,-82 795,-102"/>
<text text-anchor="middle" x="768" y="-94.8" font-family="sans" font-size="9.00">audio_0</text>
<text text-anchor="middle" x="768" y="-84.8" font-family="sans" font-size="9.00">[&gt;][bfb]</text>
</g>
<!-- qtdemux0_0x5647d56ac220_sink_0x5647d569a2a0&#45;&gt;qtdemux0_0x5647d56ac220_audio_0_0x5647d569b2d0 -->
<!-- qtdemux0_0x5647d56ac220_video_0_0x5647d569b520 -->
<g id="node11" class="node">
<title>qtdemux0_0x5647d56ac220_video_0_0x5647d569b520</title>
<polygon fill="#ffaaaa" stroke="black" stroke-dasharray="1,5" points="795,-75 741,-75 741,-55 795,-55 795,-75"/>
<text text-anchor="middle" x="768" y="-67.8" font-family="sans" font-size="9.00">video_0</text>
<text text-anchor="middle" x="768" y="-57.8" font-family="sans" font-size="9.00">[&gt;][bfb]</text>
</g>
<!-- qtdemux0_0x5647d56ac220_video_0_0x5647d569b520&#45;&gt;avdec_h264_0_0x5647d5753000_sink_0x5647d569a4f0 -->
<g id="edge8" class="edge">
<title>qtdemux0_0x5647d56ac220_video_0_0x5647d569b520&#45;&gt;avdec_h264_0_0x5647d5753000_sink_0x5647d569a4f0</title>
<path fill="none" stroke="black" d="M795.08,-65C856.25,-65 1009.06,-65 1079.45,-65"/>
<polygon fill="black" stroke="black" points="1079.62,-68.5 1089.62,-65 1079.62,-61.5 1079.62,-68.5"/>
<text text-anchor="start" x="819" y="-157.8" font-family="monospace" font-size="9.00">video/x&#45;h264</text>
<text text-anchor="start" x="819" y="-147.8" font-family="monospace" font-size="9.00"> &#160;&#160;&#160;&#160;&#160;&#160;stream&#45;format: avc</text>
<text text-anchor="start" x="819" y="-137.8" font-family="monospace" font-size="9.00"> &#160;&#160;&#160;&#160;&#160;&#160;&#160;&#160;&#160;&#160;alignment: au</text>
<text text-anchor="start" x="819" y="-127.8" font-family="monospace" font-size="9.00"> &#160;&#160;&#160;&#160;&#160;&#160;&#160;&#160;&#160;&#160;&#160;&#160;&#160;&#160;level: 3.1</text>
<text text-anchor="start" x="819" y="-117.8" font-family="monospace" font-size="9.00"> &#160;&#160;&#160;&#160;&#160;&#160;&#160;&#160;&#160;&#160;&#160;&#160;profile: high</text>
<text text-anchor="start" x="819" y="-107.8" font-family="monospace" font-size="9.00"> &#160;&#160;&#160;&#160;&#160;&#160;&#160;&#160;&#160;codec_data: 0164001fffe1001a676400...</text>
<text text-anchor="start" x="819" y="-97.8" font-family="monospace" font-size="9.00"> &#160;&#160;&#160;&#160;&#160;&#160;&#160;&#160;&#160;&#160;&#160;&#160;&#160;&#160;width: 1280</text>
<text text-anchor="start" x="819" y="-87.8" font-family="monospace" font-size="9.00"> &#160;&#160;&#160;&#160;&#160;&#160;&#160;&#160;&#160;&#160;&#160;&#160;&#160;height: 720</text>
<text text-anchor="start" x="819" y="-77.8" font-family="monospace" font-size="9.00"> &#160;&#160;&#160;&#160;&#160;&#160;&#160;&#160;&#160;&#160;framerate: 24/1</text>
<text text-anchor="start" x="819" y="-67.8" font-family="monospace" font-size="9.00"> &#160;pixel&#45;aspect&#45;ratio: 1/1</text>
</g>
<!-- filesrc0_0x5647d56982b0_src_0x5647d569a050 -->
<g id="node12" class="node">
<title>filesrc0_0x5647d56982b0_src_0x5647d569a050</title>
<polygon fill="#ffaaaa" stroke="black" points="206.5,-102 152.5,-102 152.5,-82 206.5,-82 206.5,-102"/>
<text text-anchor="middle" x="179.5" y="-94.8" font-family="sans" font-size="9.00">src</text>
<text text-anchor="middle" x="179.5" y="-84.8" font-family="sans" font-size="9.00">[&lt;][bfb]</text>
</g>
<!-- filesrc0_0x5647d56982b0_src_0x5647d569a050&#45;&gt;qtdemux0_0x5647d56ac220_sink_0x5647d569a2a0 -->
<g id="edge9" class="edge">
<title>filesrc0_0x5647d56982b0_src_0x5647d569a050&#45;&gt;qtdemux0_0x5647d56ac220_sink_0x5647d569a2a0</title>
<path fill="none" stroke="black" d="M206.65,-92C289.75,-92 547.93,-92 643.73,-92"/>
<polygon fill="black" stroke="black" points="643.81,-95.5 653.81,-92 643.81,-88.5 643.81,-95.5"/>
<text text-anchor="middle" x="498.5" y="-94.8" font-family="monospace" font-size="9.00"> &#160;&#160;&#160;&#160;&#160;&#160;&#160;&#160;&#160;&#160;&#160;&#160;&#160;&#160;&#160;&#160;&#160;&#160;&#160;&#160;&#160;&#160;&#160;&#160;&#160;&#160;&#160;&#160;&#160;&#160;&#160;&#160;&#160;&#160;&#160;&#160;&#160;&#160;&#160;&#160;&#160;&#160;&#160;&#160;&#160;&#160;&#160;&#160;&#160;</text>
<text text-anchor="start" x="521.81" y="-101.2" font-family="monospace" font-size="6.00">video/quicktime</text>
<text text-anchor="start" x="521.81" y="-94.2" font-family="monospace" font-size="6.00">video/mj2</text>
<text text-anchor="start" x="521.81" y="-87.2" font-family="monospace" font-size="6.00">audio/x&#45;m4a</text>
<text text-anchor="start" x="521.81" y="-80.2" font-family="monospace" font-size="6.00">application/x&#45;3gp</text>
<text text-anchor="middle" x="306.65" y="-90.7" font-family="monospace" font-size="6.00">ANY</text>
</g>
</g>
</svg>
