<?xml version="1.0" encoding="UTF-8" standalone="no"?>
<!DOCTYPE svg PUBLIC "-//W3C//DTD SVG 1.1//EN"
 "http://www.w3.org/Graphics/SVG/1.1/DTD/svg11.dtd">
<!-- Generated by graphviz version 2.43.0 (0)
 -->
<!-- Title: pipeline Pages: 1 -->
<svg width="1385pt" height="273pt"
 viewBox="0.00 0.00 1385.00 273.00" xmlns="http://www.w3.org/2000/svg" xmlns:xlink="http://www.w3.org/1999/xlink">
<g id="graph0" class="graph" transform="scale(1 1) rotate(0) translate(4 269)">
<title>pipeline</title>
<polygon fill="white" stroke="transparent" points="-4,4 -4,-269 1381,-269 1381,4 -4,4"/>
<text text-anchor="middle" x="688.5" y="-253" font-family="sans" font-size="10.00">&lt;GstPipeline&gt;</text>
<text text-anchor="middle" x="688.5" y="-242" font-family="sans" font-size="10.00">pipeline0</text>
<text text-anchor="middle" x="688.5" y="-231" font-family="sans" font-size="10.00">[&#45;] &#45;&gt; [0]</text>
<g id="clust1" class="cluster">
<title>cluster_xvimagesink0_0x55774f6c2d70</title>
<path fill="#aaaaff" stroke="black" d="M1226,-66C1226,-66 1365,-66 1365,-66 1371,-66 1377,-72 1377,-78 1377,-78 1377,-204 1377,-204 1377,-210 1371,-216 1365,-216 1365,-216 1226,-216 1226,-216 1220,-216 1214,-210 1214,-204 1214,-204 1214,-78 1214,-78 1214,-72 1220,-66 1226,-66"/>
<text text-anchor="middle" x="1295.5" y="-205.6" font-family="Bitstream Vera Sans" font-size="8.00">GstXvImageSink</text>
<text text-anchor="middle" x="1295.5" y="-196.6" font-family="Bitstream Vera Sans" font-size="8.00">xvimagesink0</text>
<text text-anchor="middle" x="1295.5" y="-187.6" font-family="Bitstream Vera Sans" font-size="8.00">[&#45;]</text>
<text text-anchor="middle" x="1295.5" y="-178.6" font-family="Bitstream Vera Sans" font-size="8.00">parent=(GstPipeline) pipeline0</text>
<text text-anchor="middle" x="1295.5" y="-169.6" font-family="Bitstream Vera Sans" font-size="8.00">max&#45;lateness=5000000</text>
<text text-anchor="middle" x="1295.5" y="-160.6" font-family="Bitstream Vera Sans" font-size="8.00">qos=TRUE</text>
<text text-anchor="middle" x="1295.5" y="-151.6" font-family="Bitstream Vera Sans" font-size="8.00">processing&#45;deadline=15000000</text>
<text text-anchor="middle" x="1295.5" y="-142.6" font-family="Bitstream Vera Sans" font-size="8.00">device&#45;name=&quot;NV17 Video Texture&quot;</text>
<text text-anchor="middle" x="1295.5" y="-133.6" font-family="Bitstream Vera Sans" font-size="8.00">double&#45;buffer=FALSE</text>
<text text-anchor="middle" x="1295.5" y="-124.6" font-family="Bitstream Vera Sans" font-size="8.00">colorkey=526352</text>
</g>
<g id="clust2" class="cluster">
<title>cluster_xvimagesink0_0x55774f6c2d70_sink</title>
</g>
<g id="clust3" class="cluster">
<title>cluster_avdec_h264_0_0x55774f6add50</title>
<path fill="#aaffaa" stroke="black" d="M774,-66C774,-66 923,-66 923,-66 929,-66 935,-72 935,-78 935,-78 935,-159 935,-159 935,-165 929,-171 923,-171 923,-171 774,-171 774,-171 768,-171 762,-165 762,-159 762,-159 762,-78 762,-78 762,-72 768,-66 774,-66"/>
<text text-anchor="middle" x="848.5" y="-160.6" font-family="Bitstream Vera Sans" font-size="8.00">avdec_h264</text>
<text text-anchor="middle" x="848.5" y="-151.6" font-family="Bitstream Vera Sans" font-size="8.00">avdec_h264&#45;0</text>
<text text-anchor="middle" x="848.5" y="-142.6" font-family="Bitstream Vera Sans" font-size="8.00">[&#45;]</text>
<text text-anchor="middle" x="848.5" y="-133.6" font-family="Bitstream Vera Sans" font-size="8.00">parent=(GstPipeline) pipeline0</text>
<text text-anchor="middle" x="848.5" y="-124.6" font-family="Bitstream Vera Sans" font-size="8.00">output&#45;corrupt=FALSE</text>
</g>
<g id="clust4" class="cluster">
<title>cluster_avdec_h264_0_0x55774f6add50_sink</title>
</g>
<g id="clust5" class="cluster">
<title>cluster_avdec_h264_0_0x55774f6add50_src</title>
</g>
<g id="clust6" class="cluster">
<title>cluster_rtph264depay0_0x55774f606080</title>
<path fill="#aaffaa" stroke="black" d="M119.5,-66C119.5,-66 471,-66 471,-66 477,-66 483,-72 483,-78 483,-78 483,-159 483,-159 483,-165 477,-171 471,-171 471,-171 119.5,-171 119.5,-171 113.5,-171 107.5,-165 107.5,-159 107.5,-159 107.5,-78 107.5,-78 107.5,-72 113.5,-66 119.5,-66"/>
<text text-anchor="middle" x="295.25" y="-160.6" font-family="Bitstream Vera Sans" font-size="8.00">GstRtpH264Depay</text>
<text text-anchor="middle" x="295.25" y="-151.6" font-family="Bitstream Vera Sans" font-size="8.00">rtph264depay0</text>
<text text-anchor="middle" x="295.25" y="-142.6" font-family="Bitstream Vera Sans" font-size="8.00">[&#45;]</text>
<text text-anchor="middle" x="295.25" y="-133.6" font-family="Bitstream Vera Sans" font-size="8.00">parent=(GstPipeline) pipeline0</text>
<text text-anchor="middle" x="295.25" y="-124.6" font-family="Bitstream Vera Sans" font-size="8.00">stats=application/x&#45;rtp&#45;depayload&#45;stats, clock_rate=(uint)0, npt&#45;start=(guint64)0, npt…</text>
</g>
<g id="clust7" class="cluster">
<title>cluster_rtph264depay0_0x55774f606080_sink</title>
</g>
<g id="clust8" class="cluster">
<title>cluster_rtph264depay0_0x55774f606080_src</title>
</g>
<!-- legend -->
<g id="node1" class="node">
<title>legend</title>
<polygon fill="lightgrey" stroke="black" points="359,-58 0,-58 0,0 359,0 359,-58"/>
<text text-anchor="start" x="4" y="-46.8" font-family="sans" font-size="9.00">Legend</text>
<text text-anchor="start" x="4" y="-36.8" font-family="sans" font-size="9.00">Element&#45;States: [~] void&#45;pending, [0] null, [&#45;] ready, [=] paused, [&gt;] playing</text>
<text text-anchor="start" x="4" y="-26.8" font-family="sans" font-size="9.00">Pad&#45;Activation: [&#45;] none, [&gt;] push, [&lt;] pull</text>
<text text-anchor="start" x="4" y="-16.8" font-family="sans" font-size="9.00">Pad&#45;Flags: [b]locked, [f]lushing, [b]locking, [E]OS; upper&#45;case is set</text>
<text text-anchor="start" x="4" y="-6.8" font-family="sans" font-size="9.00">Pad&#45;Task: [T] has started task, [t] has paused task</text>
</g>
<!-- xvimagesink0_0x55774f6c2d70_sink_0x55774f608a10 -->
<g id="node2" class="node">
<title>xvimagesink0_0x55774f6c2d70_sink_0x55774f608a10</title>
<polygon fill="#aaaaff" stroke="black" points="1322,-102 1268,-102 1268,-82 1322,-82 1322,-102"/>
<text text-anchor="middle" x="1295" y="-94.8" font-family="sans" font-size="9.00">sink</text>
<text text-anchor="middle" x="1295" y="-84.8" font-family="sans" font-size="9.00">[&#45;][bFb]</text>
</g>
<!-- avdec_h264_0_0x55774f6add50_sink_0x55774f608570 -->
<g id="node3" class="node">
<title>avdec_h264_0_0x55774f6add50_sink_0x55774f608570</title>
<polygon fill="#aaaaff" stroke="black" points="832,-102 778,-102 778,-82 832,-82 832,-102"/>
<text text-anchor="middle" x="805" y="-94.8" font-family="sans" font-size="9.00">sink</text>
<text text-anchor="middle" x="805" y="-84.8" font-family="sans" font-size="9.00">[&#45;][bFb]</text>
</g>
<!-- avdec_h264_0_0x55774f6add50_src_0x55774f6087c0 -->
<g id="node4" class="node">
<title>avdec_h264_0_0x55774f6add50_src_0x55774f6087c0</title>
<polygon fill="#ffaaaa" stroke="black" points="919,-102 865,-102 865,-82 919,-82 919,-102"/>
<text text-anchor="middle" x="892" y="-94.8" font-family="sans" font-size="9.00">src</text>
<text text-anchor="middle" x="892" y="-84.8" font-family="sans" font-size="9.00">[&#45;][bFb]</text>
</g>
<!-- avdec_h264_0_0x55774f6add50_sink_0x55774f608570&#45;&gt;avdec_h264_0_0x55774f6add50_src_0x55774f6087c0 -->
<!-- avdec_h264_0_0x55774f6add50_src_0x55774f6087c0&#45;&gt;xvimagesink0_0x55774f6c2d70_sink_0x55774f608a10 -->
<g id="edge2" class="edge">
<title>avdec_h264_0_0x55774f6add50_src_0x55774f6087c0&#45;&gt;xvimagesink0_0x55774f6c2d70_sink_0x55774f608a10</title>
<path fill="none" stroke="black" d="M919,-92C988.35,-92 1177.84,-92 1257.72,-92"/>
<polygon fill="black" stroke="black" points="1257.8,-95.5 1267.8,-92 1257.8,-88.5 1257.8,-95.5"/>
<text text-anchor="middle" x="1074.5" y="-94.8" font-family="monospace" font-size="9.00"> &#160;&#160;&#160;&#160;&#160;&#160;&#160;&#160;&#160;&#160;&#160;&#160;&#160;&#160;&#160;&#160;&#160;&#160;&#160;&#160;&#160;&#160;&#160;&#160;&#160;&#160;&#160;&#160;&#160;&#160;&#160;&#160;&#160;&#160;&#160;&#160;&#160;&#160;&#160;&#160;&#160;&#160;&#160;&#160;&#160;&#160;&#160;&#160;&#160;</text>
<text text-anchor="start" x="1086.8" y="-101.2" font-family="monospace" font-size="6.00">video/x&#45;raw</text>
<text text-anchor="start" x="1086.8" y="-94.2" font-family="monospace" font-size="6.00"> &#160;&#160;&#160;&#160;&#160;&#160;&#160;&#160;&#160;&#160;framerate: [ 0/1, 2147483647/1 ]</text>
<text text-anchor="start" x="1086.8" y="-87.2" font-family="monospace" font-size="6.00"> &#160;&#160;&#160;&#160;&#160;&#160;&#160;&#160;&#160;&#160;&#160;&#160;&#160;&#160;width: [ 1, 2147483647 ]</text>
<text text-anchor="start" x="1086.8" y="-80.2" font-family="monospace" font-size="6.00"> &#160;&#160;&#160;&#160;&#160;&#160;&#160;&#160;&#160;&#160;&#160;&#160;&#160;height: [ 1, 2147483647 ]</text>
<text text-anchor="start" x="930.5" y="-94.2" font-family="monospace" font-size="6.00">video/x&#45;raw</text>
<text text-anchor="start" x="930.5" y="-87.2" font-family="monospace" font-size="6.00"> &#160;&#160;&#160;&#160;&#160;&#160;&#160;&#160;&#160;&#160;&#160;&#160;&#160;format: { (string)I420, (str... }</text>
</g>
<!-- rtph264depay0_0x55774f606080_sink_0x55774f6080d0 -->
<g id="node5" class="node">
<title>rtph264depay0_0x55774f606080_sink_0x55774f6080d0</title>
<polygon fill="#aaaaff" stroke="black" points="206.5,-102 152.5,-102 152.5,-82 206.5,-82 206.5,-102"/>
<text text-anchor="middle" x="179.5" y="-94.8" font-family="sans" font-size="9.00">sink</text>
<text text-anchor="middle" x="179.5" y="-84.8" font-family="sans" font-size="9.00">[&#45;][bFb]</text>
</g>
<!-- rtph264depay0_0x55774f606080_src_0x55774f608320 -->
<g id="node6" class="node">
<title>rtph264depay0_0x55774f606080_src_0x55774f608320</title>
<polygon fill="#ffaaaa" stroke="black" points="438,-102 384,-102 384,-82 438,-82 438,-102"/>
<text text-anchor="middle" x="411" y="-94.8" font-family="sans" font-size="9.00">src</text>
<text text-anchor="middle" x="411" y="-84.8" font-family="sans" font-size="9.00">[&#45;][bFb]</text>
</g>
<!-- rtph264depay0_0x55774f606080_sink_0x55774f6080d0&#45;&gt;rtph264depay0_0x55774f606080_src_0x55774f608320 -->
<!-- rtph264depay0_0x55774f606080_src_0x55774f608320&#45;&gt;avdec_h264_0_0x55774f6add50_sink_0x55774f608570 -->
<g id="edge4" class="edge">
<title>rtph264depay0_0x55774f606080_src_0x55774f608320&#45;&gt;avdec_h264_0_0x55774f6add50_sink_0x55774f608570</title>
<path fill="none" stroke="black" d="M438.02,-92C506.05,-92 689.28,-92 767.65,-92"/>
<polygon fill="black" stroke="black" points="767.99,-95.5 777.99,-92 767.99,-88.5 767.99,-95.5"/>
<text text-anchor="middle" x="622.5" y="-94.8" font-family="monospace" font-size="9.00"> &#160;&#160;&#160;&#160;&#160;&#160;&#160;&#160;&#160;&#160;&#160;&#160;&#160;&#160;&#160;&#160;&#160;&#160;&#160;&#160;&#160;&#160;&#160;&#160;&#160;&#160;&#160;&#160;&#160;&#160;&#160;&#160;&#160;&#160;&#160;&#160;&#160;&#160;&#160;&#160;&#160;&#160;&#160;&#160;&#160;&#160;&#160;&#160;&#160;</text>
<text text-anchor="start" x="589.49" y="-97.7" font-family="monospace" font-size="6.00">video/x&#45;h264</text>
<text text-anchor="start" x="589.49" y="-90.7" font-family="monospace" font-size="6.00"> &#160;&#160;&#160;&#160;&#160;&#160;&#160;&#160;&#160;&#160;alignment: au</text>
<text text-anchor="start" x="589.49" y="-83.7" font-family="monospace" font-size="6.00"> &#160;&#160;&#160;&#160;&#160;&#160;stream&#45;format: { (string)avc, (stri... }</text>
<text text-anchor="start" x="449.52" y="-108.2" font-family="monospace" font-size="6.00">video/x&#45;h264</text>
<text text-anchor="start" x="449.52" y="-101.2" font-family="monospace" font-size="6.00"> &#160;&#160;&#160;&#160;&#160;&#160;stream&#45;format: avc</text>
<text text-anchor="start" x="449.52" y="-94.2" font-family="monospace" font-size="6.00"> &#160;&#160;&#160;&#160;&#160;&#160;&#160;&#160;&#160;&#160;alignment: au</text>
<text text-anchor="start" x="449.52" y="-87.2" font-family="monospace" font-size="6.00">video/x&#45;h264</text>
<text text-anchor="start" x="449.52" y="-80.2" font-family="monospace" font-size="6.00"> &#160;&#160;&#160;&#160;&#160;&#160;stream&#45;format: byte&#45;stream</text>
<text text-anchor="start" x="449.52" y="-73.2" font-family="monospace" font-size="6.00"> &#160;&#160;&#160;&#160;&#160;&#160;&#160;&#160;&#160;&#160;alignment: { (string)nal, (stri... }</text>
</g>
</g>
</svg>
