<?xml version="1.0" encoding="UTF-8" standalone="no"?>
<!DOCTYPE svg PUBLIC "-//W3C//DTD SVG 1.1//EN"
 "http://www.w3.org/Graphics/SVG/1.1/DTD/svg11.dtd">
<!-- Generated by graphviz version 2.43.0 (0)
 -->
<!-- Title: pipeline Pages: 1 -->
<svg width="3043pt" height="608pt"
 viewBox="0.00 0.00 3043.00 608.00" xmlns="http://www.w3.org/2000/svg" xmlns:xlink="http://www.w3.org/1999/xlink">
<g id="graph0" class="graph" transform="scale(1 1) rotate(0) translate(4 604)">
<title>pipeline</title>
<polygon fill="white" stroke="transparent" points="-4,4 -4,-604 3039,-604 3039,4 -4,4"/>
<text text-anchor="middle" x="1517.5" y="-588" font-family="sans" font-size="10.00">&lt;GstPipeline&gt;</text>
<text text-anchor="middle" x="1517.5" y="-577" font-family="sans" font-size="10.00">pipeline0</text>
<text text-anchor="middle" x="1517.5" y="-566" font-family="sans" font-size="10.00">[&gt;]</text>
<g id="clust1" class="cluster">
<title>cluster_xvimagesink0_0x5629bbc68200</title>
<path fill="#aaaaff" stroke="black" d="M2841,-374C2841,-374 3023,-374 3023,-374 3029,-374 3035,-380 3035,-386 3035,-386 3035,-539 3035,-539 3035,-545 3029,-551 3023,-551 3023,-551 2841,-551 2841,-551 2835,-551 2829,-545 2829,-539 2829,-539 2829,-386 2829,-386 2829,-380 2835,-374 2841,-374"/>
<text text-anchor="middle" x="2932" y="-540.6" font-family="Bitstream Vera Sans" font-size="8.00">GstXvImageSink</text>
<text text-anchor="middle" x="2932" y="-531.6" font-family="Bitstream Vera Sans" font-size="8.00">xvimagesink0</text>
<text text-anchor="middle" x="2932" y="-522.6" font-family="Bitstream Vera Sans" font-size="8.00">[&gt;]</text>
<text text-anchor="middle" x="2932" y="-513.6" font-family="Bitstream Vera Sans" font-size="8.00">parent=(GstPipeline) pipeline0</text>
<text text-anchor="middle" x="2932" y="-504.6" font-family="Bitstream Vera Sans" font-size="8.00">max&#45;lateness=5000000</text>
<text text-anchor="middle" x="2932" y="-495.6" font-family="Bitstream Vera Sans" font-size="8.00">qos=TRUE</text>
<text text-anchor="middle" x="2932" y="-486.6" font-family="Bitstream Vera Sans" font-size="8.00">last&#45;sample=((GstSample*) 0x5629bbc40400)</text>
<text text-anchor="middle" x="2932" y="-477.6" font-family="Bitstream Vera Sans" font-size="8.00">processing&#45;deadline=15000000</text>
<text text-anchor="middle" x="2932" y="-468.6" font-family="Bitstream Vera Sans" font-size="8.00">device&#45;name=&quot;NV17 Video Texture&quot;</text>
<text text-anchor="middle" x="2932" y="-459.6" font-family="Bitstream Vera Sans" font-size="8.00">double&#45;buffer=FALSE</text>
<text text-anchor="middle" x="2932" y="-450.6" font-family="Bitstream Vera Sans" font-size="8.00">colorkey=526352</text>
<text text-anchor="middle" x="2932" y="-441.6" font-family="Bitstream Vera Sans" font-size="8.00">window&#45;width=320</text>
<text text-anchor="middle" x="2932" y="-432.6" font-family="Bitstream Vera Sans" font-size="8.00">window&#45;height=240</text>
</g>
<g id="clust2" class="cluster">
<title>cluster_xvimagesink0_0x5629bbc68200_sink</title>
</g>
<g id="clust3" class="cluster">
<title>cluster_autovideoconvert0_0x5629bbc62080</title>
<path fill="#ffffff" stroke="black" d="M1684,-8C1684,-8 2627,-8 2627,-8 2633,-8 2639,-14 2639,-20 2639,-20 2639,-458 2639,-458 2639,-464 2633,-470 2627,-470 2627,-470 1684,-470 1684,-470 1678,-470 1672,-464 1672,-458 1672,-458 1672,-20 1672,-20 1672,-14 1678,-8 1684,-8"/>
<text text-anchor="middle" x="2155.5" y="-459.6" font-family="Bitstream Vera Sans" font-size="8.00">GstAutoVideoConvert</text>
<text text-anchor="middle" x="2155.5" y="-450.6" font-family="Bitstream Vera Sans" font-size="8.00">autovideoconvert0</text>
<text text-anchor="middle" x="2155.5" y="-441.6" font-family="Bitstream Vera Sans" font-size="8.00">[&gt;]</text>
<text text-anchor="middle" x="2155.5" y="-432.6" font-family="Bitstream Vera Sans" font-size="8.00">parent=(GstPipeline) pipeline0</text>
</g>
<g id="clust4" class="cluster">
<title>cluster_autovideoconvert0_0x5629bbc62080_sink</title>
</g>
<g id="clust5" class="cluster">
<title>cluster_autovideoconvert0_0x5629bbc62080_src</title>
</g>
<g id="clust6" class="cluster">
<title>cluster_autoconvertchild_0x5629bbc7d020</title>
<path fill="#ffffff" stroke="black" d="M1976,-16C1976,-16 2619,-16 2619,-16 2625,-16 2631,-22 2631,-28 2631,-28 2631,-335 2631,-335 2631,-341 2625,-347 2619,-347 2619,-347 1976,-347 1976,-347 1970,-347 1964,-341 1964,-335 1964,-335 1964,-28 1964,-28 1964,-22 1970,-16 1976,-16"/>
<text text-anchor="middle" x="2297.5" y="-336.6" font-family="Bitstream Vera Sans" font-size="8.00">GstAutoConvert</text>
<text text-anchor="middle" x="2297.5" y="-327.6" font-family="Bitstream Vera Sans" font-size="8.00">autoconvertchild</text>
<text text-anchor="middle" x="2297.5" y="-318.6" font-family="Bitstream Vera Sans" font-size="8.00">[&gt;]</text>
<text text-anchor="middle" x="2297.5" y="-309.6" font-family="Bitstream Vera Sans" font-size="8.00">parent=(GstAutoVideoConvert) autovideoconvert0</text>
<text text-anchor="middle" x="2297.5" y="-300.6" font-family="Bitstream Vera Sans" font-size="8.00">factories=((gpointer) 0x5629bbc7e080)</text>
</g>
<g id="clust7" class="cluster">
<title>cluster_autoconvertchild_0x5629bbc7d020_sink</title>
</g>
<g id="clust8" class="cluster">
<title>cluster_autoconvertchild_0x5629bbc7d020_src</title>
</g>
<g id="clust9" class="cluster">
<title>cluster_videoscale0_0x7f850c0344b0</title>
<path fill="#aaffaa" stroke="black" d="M1984,-137C1984,-137 2151,-137 2151,-137 2157,-137 2163,-143 2163,-149 2163,-149 2163,-230 2163,-230 2163,-236 2157,-242 2151,-242 2151,-242 1984,-242 1984,-242 1978,-242 1972,-236 1972,-230 1972,-230 1972,-149 1972,-149 1972,-143 1978,-137 1984,-137"/>
<text text-anchor="middle" x="2067.5" y="-231.6" font-family="Bitstream Vera Sans" font-size="8.00">GstVideoScale</text>
<text text-anchor="middle" x="2067.5" y="-222.6" font-family="Bitstream Vera Sans" font-size="8.00">videoscale0</text>
<text text-anchor="middle" x="2067.5" y="-213.6" font-family="Bitstream Vera Sans" font-size="8.00">[&gt;]</text>
<text text-anchor="middle" x="2067.5" y="-204.6" font-family="Bitstream Vera Sans" font-size="8.00">parent=(GstAutoConvert) autoconvertchild</text>
<text text-anchor="middle" x="2067.5" y="-195.6" font-family="Bitstream Vera Sans" font-size="8.00">qos=TRUE</text>
</g>
<g id="clust10" class="cluster">
<title>cluster_videoscale0_0x7f850c0344b0_sink</title>
</g>
<g id="clust11" class="cluster">
<title>cluster_videoscale0_0x7f850c0344b0_src</title>
</g>
<g id="clust12" class="cluster">
<title>cluster_videoconvert0_0x7f850c026320</title>
<path fill="#aaffaa" stroke="black" d="M1984,-24C1984,-24 2151,-24 2151,-24 2157,-24 2163,-30 2163,-36 2163,-36 2163,-117 2163,-117 2163,-123 2157,-129 2151,-129 2151,-129 1984,-129 1984,-129 1978,-129 1972,-123 1972,-117 1972,-117 1972,-36 1972,-36 1972,-30 1978,-24 1984,-24"/>
<text text-anchor="middle" x="2067.5" y="-118.6" font-family="Bitstream Vera Sans" font-size="8.00">GstVideoConvert</text>
<text text-anchor="middle" x="2067.5" y="-109.6" font-family="Bitstream Vera Sans" font-size="8.00">videoconvert0</text>
<text text-anchor="middle" x="2067.5" y="-100.6" font-family="Bitstream Vera Sans" font-size="8.00">[&gt;]</text>
<text text-anchor="middle" x="2067.5" y="-91.6" font-family="Bitstream Vera Sans" font-size="8.00">parent=(GstAutoConvert) autoconvertchild</text>
<text text-anchor="middle" x="2067.5" y="-82.6" font-family="Bitstream Vera Sans" font-size="8.00">qos=TRUE</text>
</g>
<g id="clust13" class="cluster">
<title>cluster_videoconvert0_0x7f850c026320_sink</title>
</g>
<g id="clust14" class="cluster">
<title>cluster_videoconvert0_0x7f850c026320_src</title>
</g>
<g id="clust15" class="cluster">
<title>cluster_decodebin0_0x5629bbc56060</title>
<path fill="#ffffff" stroke="black" d="M561,-254C561,-254 1470,-254 1470,-254 1476,-254 1482,-260 1482,-266 1482,-266 1482,-426 1482,-426 1482,-432 1476,-438 1470,-438 1470,-438 561,-438 561,-438 555,-438 549,-432 549,-426 549,-426 549,-266 549,-266 549,-260 555,-254 561,-254"/>
<text text-anchor="middle" x="1015.5" y="-427.6" font-family="Bitstream Vera Sans" font-size="8.00">GstDecodeBin</text>
<text text-anchor="middle" x="1015.5" y="-418.6" font-family="Bitstream Vera Sans" font-size="8.00">decodebin0</text>
<text text-anchor="middle" x="1015.5" y="-409.6" font-family="Bitstream Vera Sans" font-size="8.00">[&gt;]</text>
<text text-anchor="middle" x="1015.5" y="-400.6" font-family="Bitstream Vera Sans" font-size="8.00">parent=(GstPipeline) pipeline0</text>
<text text-anchor="middle" x="1015.5" y="-391.6" font-family="Bitstream Vera Sans" font-size="8.00">caps=video/x&#45;raw(ANY); audio/x&#45;raw(ANY); text/x&#45;raw(ANY); subpicture/x&#45;dvd; subpictur…</text>
</g>
<g id="clust16" class="cluster">
<title>cluster_decodebin0_0x5629bbc56060_sink</title>
</g>
<g id="clust17" class="cluster">
<title>cluster_decodebin0_0x5629bbc56060_src</title>
</g>
<g id="clust18" class="cluster">
<title>cluster_typefind_0x5629bbc59090</title>
<path fill="#aaffaa" stroke="black" d="M837,-262C837,-262 1194,-262 1194,-262 1200,-262 1206,-268 1206,-274 1206,-274 1206,-355 1206,-355 1206,-361 1200,-367 1194,-367 1194,-367 837,-367 837,-367 831,-367 825,-361 825,-355 825,-355 825,-274 825,-274 825,-268 831,-262 837,-262"/>
<text text-anchor="middle" x="1015.5" y="-356.6" font-family="Bitstream Vera Sans" font-size="8.00">GstTypeFindElement</text>
<text text-anchor="middle" x="1015.5" y="-347.6" font-family="Bitstream Vera Sans" font-size="8.00">typefind</text>
<text text-anchor="middle" x="1015.5" y="-338.6" font-family="Bitstream Vera Sans" font-size="8.00">[&gt;]</text>
<text text-anchor="middle" x="1015.5" y="-329.6" font-family="Bitstream Vera Sans" font-size="8.00">parent=(GstDecodeBin) decodebin0</text>
<text text-anchor="middle" x="1015.5" y="-320.6" font-family="Bitstream Vera Sans" font-size="8.00">caps=video/x&#45;raw, format=(string)I420, width=(int)320, height=(int)240, framerate=(fr…</text>
</g>
<g id="clust19" class="cluster">
<title>cluster_typefind_0x5629bbc59090_sink</title>
</g>
<g id="clust20" class="cluster">
<title>cluster_typefind_0x5629bbc59090_src</title>
</g>
<g id="clust21" class="cluster">
<title>cluster_videotestsrc0_0x5629bbc52510</title>
<path fill="#ffaaaa" stroke="black" d="M120.5,-312C120.5,-312 239.5,-312 239.5,-312 245.5,-312 251.5,-318 251.5,-324 251.5,-324 251.5,-396 251.5,-396 251.5,-402 245.5,-408 239.5,-408 239.5,-408 120.5,-408 120.5,-408 114.5,-408 108.5,-402 108.5,-396 108.5,-396 108.5,-324 108.5,-324 108.5,-318 114.5,-312 120.5,-312"/>
<text text-anchor="middle" x="180" y="-397.6" font-family="Bitstream Vera Sans" font-size="8.00">GstVideoTestSrc</text>
<text text-anchor="middle" x="180" y="-388.6" font-family="Bitstream Vera Sans" font-size="8.00">videotestsrc0</text>
<text text-anchor="middle" x="180" y="-379.6" font-family="Bitstream Vera Sans" font-size="8.00">[&gt;]</text>
<text text-anchor="middle" x="180" y="-370.6" font-family="Bitstream Vera Sans" font-size="8.00">parent=(GstPipeline) pipeline0</text>
</g>
<g id="clust22" class="cluster">
<title>cluster_videotestsrc0_0x5629bbc52510_src</title>
</g>
<!-- legend -->
<g id="node1" class="node">
<title>legend</title>
<polygon fill="lightgrey" stroke="black" points="359,-304 0,-304 0,-246 359,-246 359,-304"/>
<text text-anchor="start" x="4" y="-292.8" font-family="sans" font-size="9.00">Legend</text>
<text text-anchor="start" x="4" y="-282.8" font-family="sans" font-size="9.00">Element&#45;States: [~] void&#45;pending, [0] null, [&#45;] ready, [=] paused, [&gt;] playing</text>
<text text-anchor="start" x="4" y="-272.8" font-family="sans" font-size="9.00">Pad&#45;Activation: [&#45;] none, [&gt;] push, [&lt;] pull</text>
<text text-anchor="start" x="4" y="-262.8" font-family="sans" font-size="9.00">Pad&#45;Flags: [b]locked, [f]lushing, [b]locking, [E]OS; upper&#45;case is set</text>
<text text-anchor="start" x="4" y="-252.8" font-family="sans" font-size="9.00">Pad&#45;Task: [T] has started task, [t] has paused task</text>
</g>
<!-- xvimagesink0_0x5629bbc68200_sink_0x5629bbc468d0 -->
<g id="node2" class="node">
<title>xvimagesink0_0x5629bbc68200_sink_0x5629bbc468d0</title>
<polygon fill="#aaaaff" stroke="black" points="2959,-410 2905,-410 2905,-390 2959,-390 2959,-410"/>
<text text-anchor="middle" x="2932" y="-402.8" font-family="sans" font-size="9.00">sink</text>
<text text-anchor="middle" x="2932" y="-392.8" font-family="sans" font-size="9.00">[&gt;][bfb]</text>
</g>
<!-- _proxypad1_0x5629bbc602d0 -->
<g id="node3" class="node">
<title>_proxypad1_0x5629bbc602d0</title>
<polygon fill="#ddddff" stroke="black" points="1742,-320 1688,-320 1688,-300 1742,-300 1742,-320"/>
<text text-anchor="middle" x="1715" y="-312.8" font-family="sans" font-size="9.00">proxypad1</text>
<text text-anchor="middle" x="1715" y="-302.8" font-family="sans" font-size="9.00">[&gt;][bfb]</text>
</g>
<!-- autoconvertchild_0x5629bbc7d020_sink_0x5629bbc46b20 -->
<g id="node7" class="node">
<title>autoconvertchild_0x5629bbc7d020_sink_0x5629bbc46b20</title>
<polygon fill="#aaaaff" stroke="black" points="2051,-278 1997,-278 1997,-258 2051,-258 2051,-278"/>
<text text-anchor="middle" x="2024" y="-270.8" font-family="sans" font-size="9.00">sink</text>
<text text-anchor="middle" x="2024" y="-260.8" font-family="sans" font-size="9.00">[&gt;][bfb]</text>
</g>
<!-- _proxypad1_0x5629bbc602d0&#45;&gt;autoconvertchild_0x5629bbc7d020_sink_0x5629bbc46b20 -->
<g id="edge9" class="edge">
<title>_proxypad1_0x5629bbc602d0&#45;&gt;autoconvertchild_0x5629bbc7d020_sink_0x5629bbc46b20</title>
<path fill="none" stroke="black" d="M1742.42,-300.23C1747.53,-298.61 1752.89,-297.11 1758,-296 1838.41,-278.57 1934.99,-271.84 1986.47,-269.36"/>
<polygon fill="black" stroke="black" points="1986.92,-272.84 1996.75,-268.89 1986.6,-265.85 1986.92,-272.84"/>
<text text-anchor="start" x="1758" y="-368.8" font-family="monospace" font-size="9.00">video/x&#45;raw</text>
<text text-anchor="start" x="1758" y="-358.8" font-family="monospace" font-size="9.00"> &#160;&#160;&#160;&#160;&#160;&#160;&#160;&#160;&#160;&#160;&#160;&#160;&#160;format: I420</text>
<text text-anchor="start" x="1758" y="-348.8" font-family="monospace" font-size="9.00"> &#160;&#160;&#160;&#160;&#160;&#160;&#160;&#160;&#160;&#160;&#160;&#160;&#160;&#160;width: 320</text>
<text text-anchor="start" x="1758" y="-338.8" font-family="monospace" font-size="9.00"> &#160;&#160;&#160;&#160;&#160;&#160;&#160;&#160;&#160;&#160;&#160;&#160;&#160;height: 240</text>
<text text-anchor="start" x="1758" y="-328.8" font-family="monospace" font-size="9.00"> &#160;&#160;&#160;&#160;&#160;&#160;&#160;&#160;&#160;&#160;framerate: 30/1</text>
<text text-anchor="start" x="1758" y="-318.8" font-family="monospace" font-size="9.00"> &#160;&#160;&#160;&#160;&#160;multiview&#45;mode: mono</text>
<text text-anchor="start" x="1758" y="-308.8" font-family="monospace" font-size="9.00"> &#160;pixel&#45;aspect&#45;ratio: 1/1</text>
<text text-anchor="start" x="1758" y="-298.8" font-family="monospace" font-size="9.00"> &#160;&#160;&#160;&#160;&#160;interlace&#45;mode: progressive</text>
</g>
<!-- autovideoconvert0_0x5629bbc62080_sink_0x5629bbc5e350 -->
<g id="node4" class="node">
<title>autovideoconvert0_0x5629bbc62080_sink_0x5629bbc5e350</title>
<polygon fill="#ddddff" stroke="black" points="1742,-347 1688,-347 1688,-327 1742,-327 1742,-347"/>
<text text-anchor="middle" x="1715" y="-339.8" font-family="sans" font-size="9.00">sink</text>
<text text-anchor="middle" x="1715" y="-329.8" font-family="sans" font-size="9.00">[&gt;][bfb]</text>
</g>
<!-- autovideoconvert0_0x5629bbc62080_sink_0x5629bbc5e350&#45;&gt;_proxypad1_0x5629bbc602d0 -->
<g id="edge1" class="edge">
<title>autovideoconvert0_0x5629bbc62080_sink_0x5629bbc5e350&#45;&gt;_proxypad1_0x5629bbc602d0</title>
<path fill="none" stroke="black" stroke-dasharray="5,2" d="M1715,-326.98C1715,-326.84 1715,-326.69 1715,-326.55"/>
<polygon fill="black" stroke="black" points="1718.5,-330.12 1715,-320.12 1711.5,-330.13 1718.5,-330.12"/>
</g>
<!-- autovideoconvert0_0x5629bbc62080_src_0x5629bbc5e5d0 -->
<g id="node6" class="node">
<title>autovideoconvert0_0x5629bbc62080_src_0x5629bbc5e5d0</title>
<polygon fill="#ffdddd" stroke="black" points="2575.5,-410 2521.5,-410 2521.5,-390 2575.5,-390 2575.5,-410"/>
<text text-anchor="middle" x="2548.5" y="-402.8" font-family="sans" font-size="9.00">src</text>
<text text-anchor="middle" x="2548.5" y="-392.8" font-family="sans" font-size="9.00">[&gt;][bfb]</text>
</g>
<!-- autovideoconvert0_0x5629bbc62080_sink_0x5629bbc5e350&#45;&gt;autovideoconvert0_0x5629bbc62080_src_0x5629bbc5e5d0 -->
<!-- _proxypad2_0x5629bbc60530 -->
<g id="node5" class="node">
<title>_proxypad2_0x5629bbc60530</title>
<polygon fill="#ffdddd" stroke="black" points="2575.5,-383 2521.5,-383 2521.5,-363 2575.5,-363 2575.5,-383"/>
<text text-anchor="middle" x="2548.5" y="-375.8" font-family="sans" font-size="9.00">proxypad2</text>
<text text-anchor="middle" x="2548.5" y="-365.8" font-family="sans" font-size="9.00">[&gt;][bfb]</text>
</g>
<!-- _proxypad2_0x5629bbc60530&#45;&gt;autovideoconvert0_0x5629bbc62080_src_0x5629bbc5e5d0 -->
<g id="edge2" class="edge">
<title>_proxypad2_0x5629bbc60530&#45;&gt;autovideoconvert0_0x5629bbc62080_src_0x5629bbc5e5d0</title>
<path fill="none" stroke="black" stroke-dasharray="5,2" d="M2548.5,-383.12C2548.5,-383.27 2548.5,-383.41 2548.5,-383.55"/>
<polygon fill="black" stroke="black" points="2545,-379.98 2548.5,-389.98 2552,-379.98 2545,-379.98"/>
</g>
<!-- autovideoconvert0_0x5629bbc62080_src_0x5629bbc5e5d0&#45;&gt;xvimagesink0_0x5629bbc68200_sink_0x5629bbc468d0 -->
<g id="edge11" class="edge">
<title>autovideoconvert0_0x5629bbc62080_src_0x5629bbc5e5d0&#45;&gt;xvimagesink0_0x5629bbc68200_sink_0x5629bbc468d0</title>
<path fill="none" stroke="black" d="M2575.72,-400C2642.37,-400 2818.35,-400 2894.75,-400"/>
<polygon fill="black" stroke="black" points="2894.85,-403.5 2904.85,-400 2894.85,-396.5 2894.85,-403.5"/>
<text text-anchor="start" x="2647" y="-472.8" font-family="monospace" font-size="9.00">video/x&#45;raw</text>
<text text-anchor="start" x="2647" y="-462.8" font-family="monospace" font-size="9.00"> &#160;&#160;&#160;&#160;&#160;&#160;&#160;&#160;&#160;&#160;&#160;&#160;&#160;format: I420</text>
<text text-anchor="start" x="2647" y="-452.8" font-family="monospace" font-size="9.00"> &#160;&#160;&#160;&#160;&#160;&#160;&#160;&#160;&#160;&#160;&#160;&#160;&#160;&#160;width: 320</text>
<text text-anchor="start" x="2647" y="-442.8" font-family="monospace" font-size="9.00"> &#160;&#160;&#160;&#160;&#160;&#160;&#160;&#160;&#160;&#160;&#160;&#160;&#160;height: 240</text>
<text text-anchor="start" x="2647" y="-432.8" font-family="monospace" font-size="9.00"> &#160;&#160;&#160;&#160;&#160;&#160;&#160;&#160;&#160;&#160;framerate: 30/1</text>
<text text-anchor="start" x="2647" y="-422.8" font-family="monospace" font-size="9.00"> &#160;&#160;&#160;&#160;&#160;multiview&#45;mode: mono</text>
<text text-anchor="start" x="2647" y="-412.8" font-family="monospace" font-size="9.00"> &#160;pixel&#45;aspect&#45;ratio: 1/1</text>
<text text-anchor="start" x="2647" y="-402.8" font-family="monospace" font-size="9.00"> &#160;&#160;&#160;&#160;&#160;interlace&#45;mode: progressive</text>
</g>
<!-- autoconvertchild_0x5629bbc7d020_src_0x5629bbc46d70 -->
<g id="node8" class="node">
<title>autoconvertchild_0x5629bbc7d020_src_0x5629bbc46d70</title>
<polygon fill="#ffaaaa" stroke="black" points="2138,-278 2084,-278 2084,-258 2138,-258 2138,-278"/>
<text text-anchor="middle" x="2111" y="-270.8" font-family="sans" font-size="9.00">src</text>
<text text-anchor="middle" x="2111" y="-260.8" font-family="sans" font-size="9.00">[&gt;][bfb]</text>
</g>
<!-- autoconvertchild_0x5629bbc7d020_sink_0x5629bbc46b20&#45;&gt;autoconvertchild_0x5629bbc7d020_src_0x5629bbc46d70 -->
<!-- autoconvertchild_0x5629bbc7d020_src_0x5629bbc46d70&#45;&gt;_proxypad2_0x5629bbc60530 -->
<g id="edge10" class="edge">
<title>autoconvertchild_0x5629bbc7d020_src_0x5629bbc46d70&#45;&gt;_proxypad2_0x5629bbc60530</title>
<path fill="none" stroke="black" d="M2138.21,-268.23C2216.07,-269.18 2442.12,-273.82 2466,-296 2483.13,-311.91 2458.98,-330.08 2474,-348 2483.25,-359.03 2497.57,-365.21 2511.12,-368.66"/>
<polygon fill="black" stroke="black" points="2510.73,-372.16 2521.24,-370.81 2512.18,-365.31 2510.73,-372.16"/>
<text text-anchor="start" x="2247.5" y="-368.8" font-family="monospace" font-size="9.00">video/x&#45;raw</text>
<text text-anchor="start" x="2247.5" y="-358.8" font-family="monospace" font-size="9.00"> &#160;&#160;&#160;&#160;&#160;&#160;&#160;&#160;&#160;&#160;&#160;&#160;&#160;format: I420</text>
<text text-anchor="start" x="2247.5" y="-348.8" font-family="monospace" font-size="9.00"> &#160;&#160;&#160;&#160;&#160;&#160;&#160;&#160;&#160;&#160;&#160;&#160;&#160;&#160;width: 320</text>
<text text-anchor="start" x="2247.5" y="-338.8" font-family="monospace" font-size="9.00"> &#160;&#160;&#160;&#160;&#160;&#160;&#160;&#160;&#160;&#160;&#160;&#160;&#160;height: 240</text>
<text text-anchor="start" x="2247.5" y="-328.8" font-family="monospace" font-size="9.00"> &#160;&#160;&#160;&#160;&#160;&#160;&#160;&#160;&#160;&#160;framerate: 30/1</text>
<text text-anchor="start" x="2247.5" y="-318.8" font-family="monospace" font-size="9.00"> &#160;&#160;&#160;&#160;&#160;multiview&#45;mode: mono</text>
<text text-anchor="start" x="2247.5" y="-308.8" font-family="monospace" font-size="9.00"> &#160;pixel&#45;aspect&#45;ratio: 1/1</text>
<text text-anchor="start" x="2247.5" y="-298.8" font-family="monospace" font-size="9.00"> &#160;&#160;&#160;&#160;&#160;interlace&#45;mode: progressive</text>
</g>
<!-- videoscale0_0x7f850c0344b0_sink_0x5629bbc47da0 -->
<g id="node9" class="node">
<title>videoscale0_0x7f850c0344b0_sink_0x5629bbc47da0</title>
<polygon fill="#aaaaff" stroke="black" points="2051,-173 1997,-173 1997,-153 2051,-153 2051,-173"/>
<text text-anchor="middle" x="2024" y="-165.8" font-family="sans" font-size="9.00">sink</text>
<text text-anchor="middle" x="2024" y="-155.8" font-family="sans" font-size="9.00">[&gt;][bfb]</text>
</g>
<!-- videoscale0_0x7f850c0344b0_src_0x7f850c036150 -->
<g id="node10" class="node">
<title>videoscale0_0x7f850c0344b0_src_0x7f850c036150</title>
<polygon fill="#ffaaaa" stroke="black" points="2138,-173 2084,-173 2084,-153 2138,-153 2138,-173"/>
<text text-anchor="middle" x="2111" y="-165.8" font-family="sans" font-size="9.00">src</text>
<text text-anchor="middle" x="2111" y="-155.8" font-family="sans" font-size="9.00">[&gt;][bfb]</text>
</g>
<!-- videoscale0_0x7f850c0344b0_sink_0x5629bbc47da0&#45;&gt;videoscale0_0x7f850c0344b0_src_0x7f850c036150 -->
<!-- _sink_internal_0x7f850c0363a0 -->
<g id="node11" class="node">
<title>_sink_internal_0x7f850c0363a0</title>
<path fill="lightgrey" stroke="black" d="M2609,-181C2609,-181 2488,-181 2488,-181 2482,-181 2476,-175 2476,-169 2476,-169 2476,-157 2476,-157 2476,-151 2482,-145 2488,-145 2488,-145 2609,-145 2609,-145 2615,-145 2621,-151 2621,-157 2621,-157 2621,-169 2621,-169 2621,-175 2615,-181 2609,-181"/>
<text text-anchor="middle" x="2548.5" y="-160.8" font-family="sans" font-size="9.00">_sink_internal_0x7f850c0363a0</text>
</g>
<!-- videoscale0_0x7f850c0344b0_src_0x7f850c036150&#45;&gt;_sink_internal_0x7f850c0363a0 -->
<g id="edge6" class="edge">
<title>videoscale0_0x7f850c0344b0_src_0x7f850c036150&#45;&gt;_sink_internal_0x7f850c0363a0</title>
<path fill="none" stroke="black" d="M2138.26,-163C2201.73,-163 2365.6,-163 2465.66,-163"/>
<polygon fill="black" stroke="black" points="2465.74,-166.5 2475.74,-163 2465.74,-159.5 2465.74,-166.5"/>
<text text-anchor="middle" x="2334.5" y="-165.8" font-family="monospace" font-size="9.00"> &#160;&#160;&#160;&#160;&#160;&#160;&#160;&#160;&#160;&#160;&#160;&#160;&#160;&#160;&#160;&#160;&#160;&#160;&#160;&#160;&#160;&#160;&#160;&#160;&#160;&#160;&#160;&#160;&#160;&#160;&#160;&#160;&#160;&#160;&#160;&#160;&#160;&#160;&#160;&#160;&#160;&#160;&#160;&#160;&#160;&#160;&#160;&#160;&#160;</text>
<text text-anchor="middle" x="2375.74" y="-161.7" font-family="monospace" font-size="6.00">ANY</text>
<text text-anchor="start" x="2149.76" y="-193.2" font-family="monospace" font-size="6.00">video/x&#45;raw</text>
<text text-anchor="start" x="2149.76" y="-186.2" font-family="monospace" font-size="6.00"> &#160;&#160;&#160;&#160;&#160;&#160;&#160;&#160;&#160;&#160;&#160;&#160;&#160;format: { (string)I420, (str... }</text>
<text text-anchor="start" x="2149.76" y="-179.2" font-family="monospace" font-size="6.00"> &#160;&#160;&#160;&#160;&#160;&#160;&#160;&#160;&#160;&#160;&#160;&#160;&#160;&#160;width: [ 1, 32767 ]</text>
<text text-anchor="start" x="2149.76" y="-172.2" font-family="monospace" font-size="6.00"> &#160;&#160;&#160;&#160;&#160;&#160;&#160;&#160;&#160;&#160;&#160;&#160;&#160;height: [ 1, 32767 ]</text>
<text text-anchor="start" x="2149.76" y="-165.2" font-family="monospace" font-size="6.00"> &#160;&#160;&#160;&#160;&#160;&#160;&#160;&#160;&#160;&#160;framerate: [ 0/1, 2147483647/1 ]</text>
<text text-anchor="start" x="2149.76" y="-158.2" font-family="monospace" font-size="6.00">video/x&#45;raw(ANY)</text>
<text text-anchor="start" x="2149.76" y="-151.2" font-family="monospace" font-size="6.00"> &#160;&#160;&#160;&#160;&#160;&#160;&#160;&#160;&#160;&#160;&#160;&#160;&#160;format: { (string)I420, (str... }</text>
<text text-anchor="start" x="2149.76" y="-144.2" font-family="monospace" font-size="6.00"> &#160;&#160;&#160;&#160;&#160;&#160;&#160;&#160;&#160;&#160;&#160;&#160;&#160;&#160;width: [ 1, 32767 ]</text>
<text text-anchor="start" x="2149.76" y="-137.2" font-family="monospace" font-size="6.00"> &#160;&#160;&#160;&#160;&#160;&#160;&#160;&#160;&#160;&#160;&#160;&#160;&#160;height: [ 1, 32767 ]</text>
<text text-anchor="start" x="2149.76" y="-130.2" font-family="monospace" font-size="6.00"> &#160;&#160;&#160;&#160;&#160;&#160;&#160;&#160;&#160;&#160;framerate: [ 0/1, 2147483647/1 ]</text>
</g>
<!-- videoconvert0_0x7f850c026320_sink_0x5629bbc47460 -->
<g id="node12" class="node">
<title>videoconvert0_0x7f850c026320_sink_0x5629bbc47460</title>
<polygon fill="#aaaaff" stroke="black" points="2051,-60 1997,-60 1997,-40 2051,-40 2051,-60"/>
<text text-anchor="middle" x="2024" y="-52.8" font-family="sans" font-size="9.00">sink</text>
<text text-anchor="middle" x="2024" y="-42.8" font-family="sans" font-size="9.00">[&gt;][bfb]</text>
</g>
<!-- videoconvert0_0x7f850c026320_src_0x5629bbc476b0 -->
<g id="node13" class="node">
<title>videoconvert0_0x7f850c026320_src_0x5629bbc476b0</title>
<polygon fill="#ffaaaa" stroke="black" points="2138,-60 2084,-60 2084,-40 2138,-40 2138,-60"/>
<text text-anchor="middle" x="2111" y="-52.8" font-family="sans" font-size="9.00">src</text>
<text text-anchor="middle" x="2111" y="-42.8" font-family="sans" font-size="9.00">[&gt;][bfb]</text>
</g>
<!-- videoconvert0_0x7f850c026320_sink_0x5629bbc47460&#45;&gt;videoconvert0_0x7f850c026320_src_0x5629bbc476b0 -->
<!-- _sink_internal_0x5629bbc47900 -->
<g id="node14" class="node">
<title>_sink_internal_0x5629bbc47900</title>
<path fill="lightgrey" stroke="black" d="M2611,-68C2611,-68 2486,-68 2486,-68 2480,-68 2474,-62 2474,-56 2474,-56 2474,-44 2474,-44 2474,-38 2480,-32 2486,-32 2486,-32 2611,-32 2611,-32 2617,-32 2623,-38 2623,-44 2623,-44 2623,-56 2623,-56 2623,-62 2617,-68 2611,-68"/>
<text text-anchor="middle" x="2548.5" y="-47.8" font-family="sans" font-size="9.00">_sink_internal_0x5629bbc47900</text>
</g>
<!-- videoconvert0_0x7f850c026320_src_0x5629bbc476b0&#45;&gt;_sink_internal_0x5629bbc47900 -->
<g id="edge8" class="edge">
<title>videoconvert0_0x7f850c026320_src_0x5629bbc476b0&#45;&gt;_sink_internal_0x5629bbc47900</title>
<path fill="none" stroke="black" d="M2138.26,-50C2201.29,-50 2363.31,-50 2463.55,-50"/>
<polygon fill="black" stroke="black" points="2463.66,-53.5 2473.66,-50 2463.66,-46.5 2463.66,-53.5"/>
<text text-anchor="start" x="2247.5" y="-122.8" font-family="monospace" font-size="9.00">video/x&#45;raw</text>
<text text-anchor="start" x="2247.5" y="-112.8" font-family="monospace" font-size="9.00"> &#160;&#160;&#160;&#160;&#160;&#160;&#160;&#160;&#160;&#160;&#160;&#160;&#160;format: I420</text>
<text text-anchor="start" x="2247.5" y="-102.8" font-family="monospace" font-size="9.00"> &#160;&#160;&#160;&#160;&#160;&#160;&#160;&#160;&#160;&#160;&#160;&#160;&#160;&#160;width: 320</text>
<text text-anchor="start" x="2247.5" y="-92.8" font-family="monospace" font-size="9.00"> &#160;&#160;&#160;&#160;&#160;&#160;&#160;&#160;&#160;&#160;&#160;&#160;&#160;height: 240</text>
<text text-anchor="start" x="2247.5" y="-82.8" font-family="monospace" font-size="9.00"> &#160;&#160;&#160;&#160;&#160;&#160;&#160;&#160;&#160;&#160;framerate: 30/1</text>
<text text-anchor="start" x="2247.5" y="-72.8" font-family="monospace" font-size="9.00"> &#160;&#160;&#160;&#160;&#160;multiview&#45;mode: mono</text>
<text text-anchor="start" x="2247.5" y="-62.8" font-family="monospace" font-size="9.00"> &#160;pixel&#45;aspect&#45;ratio: 1/1</text>
<text text-anchor="start" x="2247.5" y="-52.8" font-family="monospace" font-size="9.00"> &#160;&#160;&#160;&#160;&#160;interlace&#45;mode: progressive</text>
</g>
<!-- _proxypad0_0x5629bbc60070 -->
<g id="node15" class="node">
<title>_proxypad0_0x5629bbc60070</title>
<polygon fill="#ddddff" stroke="black" points="619,-321 565,-321 565,-301 619,-301 619,-321"/>
<text text-anchor="middle" x="592" y="-313.8" font-family="sans" font-size="9.00">proxypad0</text>
<text text-anchor="middle" x="592" y="-303.8" font-family="sans" font-size="9.00">[&gt;][bfb]</text>
</g>
<!-- typefind_0x5629bbc59090_sink_0x5629bbc46430 -->
<g id="node19" class="node">
<title>typefind_0x5629bbc59090_sink_0x5629bbc46430</title>
<polygon fill="#aaaaff" stroke="black" points="999,-298 945,-298 945,-278 999,-278 999,-298"/>
<text text-anchor="middle" x="972" y="-290.8" font-family="sans" font-size="9.00">sink</text>
<text text-anchor="middle" x="972" y="-280.8" font-family="sans" font-size="9.00">[&gt;][bfb]</text>
</g>
<!-- _proxypad0_0x5629bbc60070&#45;&gt;typefind_0x5629bbc59090_sink_0x5629bbc46430 -->
<g id="edge16" class="edge">
<title>_proxypad0_0x5629bbc60070&#45;&gt;typefind_0x5629bbc59090_sink_0x5629bbc46430</title>
<path fill="none" stroke="black" d="M613.47,-300.97C620.17,-298.16 627.75,-295.48 635,-294 742.27,-272.12 872.81,-279.09 934.87,-284.37"/>
<polygon fill="black" stroke="black" points="934.67,-287.87 944.94,-285.27 935.28,-280.9 934.67,-287.87"/>
<text text-anchor="start" x="635" y="-366.8" font-family="monospace" font-size="9.00">video/x&#45;raw</text>
<text text-anchor="start" x="635" y="-356.8" font-family="monospace" font-size="9.00"> &#160;&#160;&#160;&#160;&#160;&#160;&#160;&#160;&#160;&#160;&#160;&#160;&#160;format: I420</text>
<text text-anchor="start" x="635" y="-346.8" font-family="monospace" font-size="9.00"> &#160;&#160;&#160;&#160;&#160;&#160;&#160;&#160;&#160;&#160;&#160;&#160;&#160;&#160;width: 320</text>
<text text-anchor="start" x="635" y="-336.8" font-family="monospace" font-size="9.00"> &#160;&#160;&#160;&#160;&#160;&#160;&#160;&#160;&#160;&#160;&#160;&#160;&#160;height: 240</text>
<text text-anchor="start" x="635" y="-326.8" font-family="monospace" font-size="9.00"> &#160;&#160;&#160;&#160;&#160;&#160;&#160;&#160;&#160;&#160;framerate: 30/1</text>
<text text-anchor="start" x="635" y="-316.8" font-family="monospace" font-size="9.00"> &#160;&#160;&#160;&#160;&#160;multiview&#45;mode: mono</text>
<text text-anchor="start" x="635" y="-306.8" font-family="monospace" font-size="9.00"> &#160;pixel&#45;aspect&#45;ratio: 1/1</text>
<text text-anchor="start" x="635" y="-296.8" font-family="monospace" font-size="9.00"> &#160;&#160;&#160;&#160;&#160;interlace&#45;mode: progressive</text>
</g>
<!-- decodebin0_0x5629bbc56060_sink_0x5629bbc5e0d0 -->
<g id="node16" class="node">
<title>decodebin0_0x5629bbc56060_sink_0x5629bbc5e0d0</title>
<polygon fill="#ddddff" stroke="black" points="619,-348 565,-348 565,-328 619,-328 619,-348"/>
<text text-anchor="middle" x="592" y="-340.8" font-family="sans" font-size="9.00">sink</text>
<text text-anchor="middle" x="592" y="-330.8" font-family="sans" font-size="9.00">[&gt;][bfb]</text>
</g>
<!-- decodebin0_0x5629bbc56060_sink_0x5629bbc5e0d0&#45;&gt;_proxypad0_0x5629bbc60070 -->
<g id="edge12" class="edge">
<title>decodebin0_0x5629bbc56060_sink_0x5629bbc5e0d0&#45;&gt;_proxypad0_0x5629bbc60070</title>
<path fill="none" stroke="black" stroke-dasharray="5,2" d="M592,-327.98C592,-327.84 592,-327.69 592,-327.55"/>
<polygon fill="black" stroke="black" points="595.5,-331.12 592,-321.12 588.5,-331.13 595.5,-331.12"/>
</g>
<!-- decodebin0_0x5629bbc56060_src_0_0x7f850c014090 -->
<g id="node18" class="node">
<title>decodebin0_0x5629bbc56060_src_0_0x7f850c014090</title>
<polygon fill="#ffdddd" stroke="black" stroke-dasharray="1,5" points="1466,-347 1412,-347 1412,-327 1466,-327 1466,-347"/>
<text text-anchor="middle" x="1439" y="-339.8" font-family="sans" font-size="9.00">src_0</text>
<text text-anchor="middle" x="1439" y="-329.8" font-family="sans" font-size="9.00">[&gt;][bfb]</text>
</g>
<!-- decodebin0_0x5629bbc56060_sink_0x5629bbc5e0d0&#45;&gt;decodebin0_0x5629bbc56060_src_0_0x7f850c014090 -->
<!-- _proxypad3_0x5629bbc609f0 -->
<g id="node17" class="node">
<title>_proxypad3_0x5629bbc609f0</title>
<polygon fill="#ffdddd" stroke="black" stroke-dasharray="1,5" points="1466,-320 1412,-320 1412,-300 1466,-300 1466,-320"/>
<text text-anchor="middle" x="1439" y="-312.8" font-family="sans" font-size="9.00">proxypad3</text>
<text text-anchor="middle" x="1439" y="-302.8" font-family="sans" font-size="9.00">[&gt;][bfb]</text>
</g>
<!-- _proxypad3_0x5629bbc609f0&#45;&gt;decodebin0_0x5629bbc56060_src_0_0x7f850c014090 -->
<g id="edge13" class="edge">
<title>_proxypad3_0x5629bbc609f0&#45;&gt;decodebin0_0x5629bbc56060_src_0_0x7f850c014090</title>
<path fill="none" stroke="black" stroke-dasharray="5,2" d="M1439,-320.12C1439,-320.27 1439,-320.41 1439,-320.55"/>
<polygon fill="black" stroke="black" points="1435.5,-316.98 1439,-326.98 1442.5,-316.98 1435.5,-316.98"/>
</g>
<!-- decodebin0_0x5629bbc56060_src_0_0x7f850c014090&#45;&gt;autovideoconvert0_0x5629bbc62080_sink_0x5629bbc5e350 -->
<g id="edge18" class="edge">
<title>decodebin0_0x5629bbc56060_src_0_0x7f850c014090&#45;&gt;autovideoconvert0_0x5629bbc62080_sink_0x5629bbc5e350</title>
<path fill="none" stroke="black" d="M1466.27,-337C1515.47,-337 1621.59,-337 1677.62,-337"/>
<polygon fill="black" stroke="black" points="1677.81,-340.5 1687.81,-337 1677.81,-333.5 1677.81,-340.5"/>
<text text-anchor="start" x="1490" y="-409.8" font-family="monospace" font-size="9.00">video/x&#45;raw</text>
<text text-anchor="start" x="1490" y="-399.8" font-family="monospace" font-size="9.00"> &#160;&#160;&#160;&#160;&#160;&#160;&#160;&#160;&#160;&#160;&#160;&#160;&#160;format: I420</text>
<text text-anchor="start" x="1490" y="-389.8" font-family="monospace" font-size="9.00"> &#160;&#160;&#160;&#160;&#160;&#160;&#160;&#160;&#160;&#160;&#160;&#160;&#160;&#160;width: 320</text>
<text text-anchor="start" x="1490" y="-379.8" font-family="monospace" font-size="9.00"> &#160;&#160;&#160;&#160;&#160;&#160;&#160;&#160;&#160;&#160;&#160;&#160;&#160;height: 240</text>
<text text-anchor="start" x="1490" y="-369.8" font-family="monospace" font-size="9.00"> &#160;&#160;&#160;&#160;&#160;&#160;&#160;&#160;&#160;&#160;framerate: 30/1</text>
<text text-anchor="start" x="1490" y="-359.8" font-family="monospace" font-size="9.00"> &#160;&#160;&#160;&#160;&#160;multiview&#45;mode: mono</text>
<text text-anchor="start" x="1490" y="-349.8" font-family="monospace" font-size="9.00"> &#160;pixel&#45;aspect&#45;ratio: 1/1</text>
<text text-anchor="start" x="1490" y="-339.8" font-family="monospace" font-size="9.00"> &#160;&#160;&#160;&#160;&#160;interlace&#45;mode: progressive</text>
</g>
<!-- typefind_0x5629bbc59090_src_0x5629bbc46680 -->
<g id="node20" class="node">
<title>typefind_0x5629bbc59090_src_0x5629bbc46680</title>
<polygon fill="#ffaaaa" stroke="black" points="1086,-298 1032,-298 1032,-278 1086,-278 1086,-298"/>
<text text-anchor="middle" x="1059" y="-290.8" font-family="sans" font-size="9.00">src</text>
<text text-anchor="middle" x="1059" y="-280.8" font-family="sans" font-size="9.00">[&gt;][bfb]</text>
</g>
<!-- typefind_0x5629bbc59090_sink_0x5629bbc46430&#45;&gt;typefind_0x5629bbc59090_src_0x5629bbc46680 -->
<!-- typefind_0x5629bbc59090_src_0x5629bbc46680&#45;&gt;_proxypad3_0x5629bbc609f0 -->
<g id="edge17" class="edge">
<title>typefind_0x5629bbc59090_src_0x5629bbc46680&#45;&gt;_proxypad3_0x5629bbc609f0</title>
<path fill="none" stroke="black" d="M1086.03,-285.45C1142.91,-280.52 1282.29,-272.02 1396,-294 1399.29,-294.64 1402.67,-295.51 1406,-296.52"/>
<polygon fill="black" stroke="black" points="1405.16,-299.94 1415.75,-299.89 1407.44,-293.32 1405.16,-299.94"/>
<text text-anchor="start" x="1222" y="-366.8" font-family="monospace" font-size="9.00">video/x&#45;raw</text>
<text text-anchor="start" x="1222" y="-356.8" font-family="monospace" font-size="9.00"> &#160;&#160;&#160;&#160;&#160;&#160;&#160;&#160;&#160;&#160;&#160;&#160;&#160;format: I420</text>
<text text-anchor="start" x="1222" y="-346.8" font-family="monospace" font-size="9.00"> &#160;&#160;&#160;&#160;&#160;&#160;&#160;&#160;&#160;&#160;&#160;&#160;&#160;&#160;width: 320</text>
<text text-anchor="start" x="1222" y="-336.8" font-family="monospace" font-size="9.00"> &#160;&#160;&#160;&#160;&#160;&#160;&#160;&#160;&#160;&#160;&#160;&#160;&#160;height: 240</text>
<text text-anchor="start" x="1222" y="-326.8" font-family="monospace" font-size="9.00"> &#160;&#160;&#160;&#160;&#160;&#160;&#160;&#160;&#160;&#160;framerate: 30/1</text>
<text text-anchor="start" x="1222" y="-316.8" font-family="monospace" font-size="9.00"> &#160;&#160;&#160;&#160;&#160;multiview&#45;mode: mono</text>
<text text-anchor="start" x="1222" y="-306.8" font-family="monospace" font-size="9.00"> &#160;pixel&#45;aspect&#45;ratio: 1/1</text>
<text text-anchor="start" x="1222" y="-296.8" font-family="monospace" font-size="9.00"> &#160;&#160;&#160;&#160;&#160;interlace&#45;mode: progressive</text>
</g>
<!-- videotestsrc0_0x5629bbc52510_src_0x5629bbc461e0 -->
<g id="node21" class="node">
<title>videotestsrc0_0x5629bbc52510_src_0x5629bbc461e0</title>
<polygon fill="#ffaaaa" stroke="black" points="206.5,-348 152.5,-348 152.5,-328 206.5,-328 206.5,-348"/>
<text text-anchor="middle" x="179.5" y="-340.8" font-family="sans" font-size="9.00">src</text>
<text text-anchor="middle" x="179.5" y="-330.8" font-family="sans" font-size="9.00">[&gt;][bfb][T]</text>
</g>
<!-- videotestsrc0_0x5629bbc52510_src_0x5629bbc461e0&#45;&gt;decodebin0_0x5629bbc56060_sink_0x5629bbc5e0d0 -->
<g id="edge19" class="edge">
<title>videotestsrc0_0x5629bbc52510_src_0x5629bbc461e0&#45;&gt;decodebin0_0x5629bbc56060_sink_0x5629bbc5e0d0</title>
<path fill="none" stroke="black" d="M206.8,-338C277.76,-338 473.24,-338 554.66,-338"/>
<polygon fill="black" stroke="black" points="554.92,-341.5 564.92,-338 554.92,-334.5 554.92,-341.5"/>
<text text-anchor="start" x="367" y="-410.8" font-family="monospace" font-size="9.00">video/x&#45;raw</text>
<text text-anchor="start" x="367" y="-400.8" font-family="monospace" font-size="9.00"> &#160;&#160;&#160;&#160;&#160;&#160;&#160;&#160;&#160;&#160;&#160;&#160;&#160;format: I420</text>
<text text-anchor="start" x="367" y="-390.8" font-family="monospace" font-size="9.00"> &#160;&#160;&#160;&#160;&#160;&#160;&#160;&#160;&#160;&#160;&#160;&#160;&#160;&#160;width: 320</text>
<text text-anchor="start" x="367" y="-380.8" font-family="monospace" font-size="9.00"> &#160;&#160;&#160;&#160;&#160;&#160;&#160;&#160;&#160;&#160;&#160;&#160;&#160;height: 240</text>
<text text-anchor="start" x="367" y="-370.8" font-family="monospace" font-size="9.00"> &#160;&#160;&#160;&#160;&#160;&#160;&#160;&#160;&#160;&#160;framerate: 30/1</text>
<text text-anchor="start" x="367" y="-360.8" font-family="monospace" font-size="9.00"> &#160;&#160;&#160;&#160;&#160;multiview&#45;mode: mono</text>
<text text-anchor="start" x="367" y="-350.8" font-family="monospace" font-size="9.00"> &#160;pixel&#45;aspect&#45;ratio: 1/1</text>
<text text-anchor="start" x="367" y="-340.8" font-family="monospace" font-size="9.00"> &#160;&#160;&#160;&#160;&#160;interlace&#45;mode: progressive</text>
</g>
</g>
</svg>
