<?xml version="1.0" encoding="UTF-8" standalone="no"?>
<!DOCTYPE svg PUBLIC "-//W3C//DTD SVG 1.1//EN"
 "http://www.w3.org/Graphics/SVG/1.1/DTD/svg11.dtd">
<!-- Generated by graphviz version 2.43.0 (0)
 -->
<!-- Title: pipeline Pages: 1 -->
<svg width="2615pt" height="338pt"
 viewBox="0.00 0.00 2614.50 338.00" xmlns="http://www.w3.org/2000/svg" xmlns:xlink="http://www.w3.org/1999/xlink">
<g id="graph0" class="graph" transform="scale(1 1) rotate(0) translate(4 334)">
<title>pipeline</title>
<polygon fill="white" stroke="transparent" points="-4,4 -4,-334 2610.5,-334 2610.5,4 -4,4"/>
<text text-anchor="middle" x="1303.25" y="-318" font-family="sans" font-size="10.00">&lt;GstPipeline&gt;</text>
<text text-anchor="middle" x="1303.25" y="-307" font-family="sans" font-size="10.00">pipeline0</text>
<text text-anchor="middle" x="1303.25" y="-296" font-family="sans" font-size="10.00">[=]</text>
<g id="clust1" class="cluster">
<title>cluster_rtspclientsink0_0x55738435d020</title>
<path fill="#ffffff" stroke="black" d="M2448.5,-72C2448.5,-72 2594.5,-72 2594.5,-72 2600.5,-72 2606.5,-78 2606.5,-84 2606.5,-84 2606.5,-183 2606.5,-183 2606.5,-189 2600.5,-195 2594.5,-195 2594.5,-195 2448.5,-195 2448.5,-195 2442.5,-195 2436.5,-189 2436.5,-183 2436.5,-183 2436.5,-84 2436.5,-84 2436.5,-78 2442.5,-72 2448.5,-72"/>
<text text-anchor="middle" x="2521.5" y="-184.6" font-family="Bitstream Vera Sans" font-size="8.00">GstRTSPClientSink</text>
<text text-anchor="middle" x="2521.5" y="-175.6" font-family="Bitstream Vera Sans" font-size="8.00">rtspclientsink0</text>
<text text-anchor="middle" x="2521.5" y="-166.6" font-family="Bitstream Vera Sans" font-size="8.00">[=]</text>
<text text-anchor="middle" x="2521.5" y="-157.6" font-family="Bitstream Vera Sans" font-size="8.00">parent=(GstPipeline) pipeline0</text>
<text text-anchor="middle" x="2521.5" y="-148.6" font-family="Bitstream Vera Sans" font-size="8.00">location=&quot;rtsp://127.0.0.1:8554/test&quot;</text>
<text text-anchor="middle" x="2521.5" y="-139.6" font-family="Bitstream Vera Sans" font-size="8.00">proxy&#45;id=NULL</text>
<text text-anchor="middle" x="2521.5" y="-130.6" font-family="Bitstream Vera Sans" font-size="8.00">proxy&#45;pw=NULL</text>
</g>
<g id="clust2" class="cluster">
<title>cluster_rtspclientsink0_0x55738435d020_sink</title>
</g>
<g id="clust4" class="cluster">
<title>cluster_nvv4l2h264enc0_0x557384354110</title>
<path fill="#aaffaa" stroke="black" d="M1996.5,-72C1996.5,-72 2145.5,-72 2145.5,-72 2151.5,-72 2157.5,-78 2157.5,-84 2157.5,-84 2157.5,-219 2157.5,-219 2157.5,-225 2151.5,-231 2145.5,-231 2145.5,-231 1996.5,-231 1996.5,-231 1990.5,-231 1984.5,-225 1984.5,-219 1984.5,-219 1984.5,-84 1984.5,-84 1984.5,-78 1990.5,-72 1996.5,-72"/>
<text text-anchor="middle" x="2071" y="-220.6" font-family="Bitstream Vera Sans" font-size="8.00">nvv4l2h264enc</text>
<text text-anchor="middle" x="2071" y="-211.6" font-family="Bitstream Vera Sans" font-size="8.00">nvv4l2h264enc0</text>
<text text-anchor="middle" x="2071" y="-202.6" font-family="Bitstream Vera Sans" font-size="8.00">[=]</text>
<text text-anchor="middle" x="2071" y="-193.6" font-family="Bitstream Vera Sans" font-size="8.00">parent=(GstPipeline) pipeline0</text>
<text text-anchor="middle" x="2071" y="-184.6" font-family="Bitstream Vera Sans" font-size="8.00">qos=TRUE</text>
<text text-anchor="middle" x="2071" y="-175.6" font-family="Bitstream Vera Sans" font-size="8.00">device=&quot;/dev/v4l2&#45;nvenc&quot;</text>
<text text-anchor="middle" x="2071" y="-166.6" font-family="Bitstream Vera Sans" font-size="8.00">device&#45;name=&quot;&quot;</text>
<text text-anchor="middle" x="2071" y="-157.6" font-family="Bitstream Vera Sans" font-size="8.00">device&#45;fd=12</text>
<text text-anchor="middle" x="2071" y="-148.6" font-family="Bitstream Vera Sans" font-size="8.00">output&#45;io&#45;mode=mmap</text>
<text text-anchor="middle" x="2071" y="-139.6" font-family="Bitstream Vera Sans" font-size="8.00">iframeinterval=0</text>
<text text-anchor="middle" x="2071" y="-130.6" font-family="Bitstream Vera Sans" font-size="8.00">extended&#45;colorformat=TRUE</text>
</g>
<g id="clust5" class="cluster">
<title>cluster_nvv4l2h264enc0_0x557384354110_sink</title>
</g>
<g id="clust6" class="cluster">
<title>cluster_nvv4l2h264enc0_0x557384354110_src</title>
</g>
<g id="clust7" class="cluster">
<title>cluster_nvvideoconvert0_0x557384350820</title>
<path fill="#aaffaa" stroke="black" d="M1544.5,-72C1544.5,-72 1693.5,-72 1693.5,-72 1699.5,-72 1705.5,-78 1705.5,-84 1705.5,-84 1705.5,-174 1705.5,-174 1705.5,-180 1699.5,-186 1693.5,-186 1693.5,-186 1544.5,-186 1544.5,-186 1538.5,-186 1532.5,-180 1532.5,-174 1532.5,-174 1532.5,-84 1532.5,-84 1532.5,-78 1538.5,-72 1544.5,-72"/>
<text text-anchor="middle" x="1619" y="-175.6" font-family="Bitstream Vera Sans" font-size="8.00">Gstnvvideoconvert</text>
<text text-anchor="middle" x="1619" y="-166.6" font-family="Bitstream Vera Sans" font-size="8.00">nvvideoconvert0</text>
<text text-anchor="middle" x="1619" y="-157.6" font-family="Bitstream Vera Sans" font-size="8.00">[=]</text>
<text text-anchor="middle" x="1619" y="-148.6" font-family="Bitstream Vera Sans" font-size="8.00">parent=(GstPipeline) pipeline0</text>
<text text-anchor="middle" x="1619" y="-139.6" font-family="Bitstream Vera Sans" font-size="8.00">src&#45;crop=&quot;0:0:0:0&quot;</text>
<text text-anchor="middle" x="1619" y="-130.6" font-family="Bitstream Vera Sans" font-size="8.00">dest&#45;crop=&quot;0:0:0:0&quot;</text>
</g>
<g id="clust8" class="cluster">
<title>cluster_nvvideoconvert0_0x557384350820_sink</title>
</g>
<g id="clust9" class="cluster">
<title>cluster_nvvideoconvert0_0x557384350820_src</title>
</g>
<g id="clust10" class="cluster">
<title>cluster_nvv4l2decoder0_0x5573842819a0</title>
<path fill="#aaffaa" stroke="black" d="M1092.5,-72C1092.5,-72 1241.5,-72 1241.5,-72 1247.5,-72 1253.5,-78 1253.5,-84 1253.5,-84 1253.5,-219 1253.5,-219 1253.5,-225 1247.5,-231 1241.5,-231 1241.5,-231 1092.5,-231 1092.5,-231 1086.5,-231 1080.5,-225 1080.5,-219 1080.5,-219 1080.5,-84 1080.5,-84 1080.5,-78 1086.5,-72 1092.5,-72"/>
<text text-anchor="middle" x="1167" y="-220.6" font-family="Bitstream Vera Sans" font-size="8.00">nvv4l2decoder</text>
<text text-anchor="middle" x="1167" y="-211.6" font-family="Bitstream Vera Sans" font-size="8.00">nvv4l2decoder0</text>
<text text-anchor="middle" x="1167" y="-202.6" font-family="Bitstream Vera Sans" font-size="8.00">[=]</text>
<text text-anchor="middle" x="1167" y="-193.6" font-family="Bitstream Vera Sans" font-size="8.00">parent=(GstPipeline) pipeline0</text>
<text text-anchor="middle" x="1167" y="-184.6" font-family="Bitstream Vera Sans" font-size="8.00">device=&quot;/dev/nvidia0&quot;</text>
<text text-anchor="middle" x="1167" y="-175.6" font-family="Bitstream Vera Sans" font-size="8.00">device&#45;name=&quot;&quot;</text>
<text text-anchor="middle" x="1167" y="-166.6" font-family="Bitstream Vera Sans" font-size="8.00">device&#45;fd=13</text>
<text text-anchor="middle" x="1167" y="-157.6" font-family="Bitstream Vera Sans" font-size="8.00">output&#45;io&#45;mode=mmap</text>
<text text-anchor="middle" x="1167" y="-148.6" font-family="Bitstream Vera Sans" font-size="8.00">drop&#45;frame&#45;interval=0</text>
<text text-anchor="middle" x="1167" y="-139.6" font-family="Bitstream Vera Sans" font-size="8.00">num&#45;extra&#45;surfaces=0</text>
<text text-anchor="middle" x="1167" y="-130.6" font-family="Bitstream Vera Sans" font-size="8.00">cudadec&#45;memtype=memtype_device</text>
</g>
<g id="clust11" class="cluster">
<title>cluster_nvv4l2decoder0_0x5573842819a0_sink</title>
</g>
<g id="clust12" class="cluster">
<title>cluster_nvv4l2decoder0_0x5573842819a0_src</title>
</g>
<g id="clust13" class="cluster">
<title>cluster_h264parse0_0x557384262260</title>
<path fill="#aaffaa" stroke="black" d="M159,-72C159,-72 760.5,-72 760.5,-72 766.5,-72 772.5,-78 772.5,-84 772.5,-84 772.5,-156 772.5,-156 772.5,-162 766.5,-168 760.5,-168 760.5,-168 159,-168 159,-168 153,-168 147,-162 147,-156 147,-156 147,-84 147,-84 147,-78 153,-72 159,-72"/>
<text text-anchor="middle" x="459.75" y="-157.6" font-family="Bitstream Vera Sans" font-size="8.00">GstH264Parse</text>
<text text-anchor="middle" x="459.75" y="-148.6" font-family="Bitstream Vera Sans" font-size="8.00">h264parse0</text>
<text text-anchor="middle" x="459.75" y="-139.6" font-family="Bitstream Vera Sans" font-size="8.00">[=]</text>
<text text-anchor="middle" x="459.75" y="-130.6" font-family="Bitstream Vera Sans" font-size="8.00">parent=(GstPipeline) pipeline0</text>
</g>
<g id="clust14" class="cluster">
<title>cluster_h264parse0_0x557384262260_sink</title>
</g>
<g id="clust15" class="cluster">
<title>cluster_h264parse0_0x557384262260_src</title>
</g>
<g id="clust16" class="cluster">
<title>cluster_qtdemux0_0x55738425c110</title>
<path fill="#aaaaff" stroke="black" d="M670.5,-176C670.5,-176 789.5,-176 789.5,-176 795.5,-176 801.5,-182 801.5,-188 801.5,-188 801.5,-260 801.5,-260 801.5,-266 795.5,-272 789.5,-272 789.5,-272 670.5,-272 670.5,-272 664.5,-272 658.5,-266 658.5,-260 658.5,-260 658.5,-188 658.5,-188 658.5,-182 664.5,-176 670.5,-176"/>
<text text-anchor="middle" x="730" y="-261.6" font-family="Bitstream Vera Sans" font-size="8.00">GstQTDemux</text>
<text text-anchor="middle" x="730" y="-252.6" font-family="Bitstream Vera Sans" font-size="8.00">qtdemux0</text>
<text text-anchor="middle" x="730" y="-243.6" font-family="Bitstream Vera Sans" font-size="8.00">[=]</text>
<text text-anchor="middle" x="730" y="-234.6" font-family="Bitstream Vera Sans" font-size="8.00">parent=(GstPipeline) pipeline0</text>
</g>
<g id="clust17" class="cluster">
<title>cluster_qtdemux0_0x55738425c110_sink</title>
</g>
<g id="clust18" class="cluster">
<title>cluster_filesrc0_0x55738424c420</title>
<path fill="#ffaaaa" stroke="black" d="M12,-176C12,-176 368,-176 368,-176 374,-176 380,-182 380,-188 380,-188 380,-269 380,-269 380,-275 374,-281 368,-281 368,-281 12,-281 12,-281 6,-281 0,-275 0,-269 0,-269 0,-188 0,-188 0,-182 6,-176 12,-176"/>
<text text-anchor="middle" x="190" y="-270.6" font-family="Bitstream Vera Sans" font-size="8.00">GstFileSrc</text>
<text text-anchor="middle" x="190" y="-261.6" font-family="Bitstream Vera Sans" font-size="8.00">filesrc0</text>
<text text-anchor="middle" x="190" y="-252.6" font-family="Bitstream Vera Sans" font-size="8.00">[=]</text>
<text text-anchor="middle" x="190" y="-243.6" font-family="Bitstream Vera Sans" font-size="8.00">parent=(GstPipeline) pipeline0</text>
<text text-anchor="middle" x="190" y="-234.6" font-family="Bitstream Vera Sans" font-size="8.00">location=&quot;/opt/nvidia/deepstream/deepstream&#45;6.1/samples/streams/sample_720p.mp4&quot;</text>
</g>
<g id="clust19" class="cluster">
<title>cluster_filesrc0_0x55738424c420_src</title>
</g>
<!-- legend -->
<g id="node1" class="node">
<title>legend</title>
<polygon fill="lightgrey" stroke="black" points="369.5,-64 10.5,-64 10.5,-6 369.5,-6 369.5,-64"/>
<text text-anchor="start" x="14.5" y="-52.8" font-family="sans" font-size="9.00">Legend</text>
<text text-anchor="start" x="14.5" y="-42.8" font-family="sans" font-size="9.00">Element&#45;States: [~] void&#45;pending, [0] null, [&#45;] ready, [=] paused, [&gt;] playing</text>
<text text-anchor="start" x="14.5" y="-32.8" font-family="sans" font-size="9.00">Pad&#45;Activation: [&#45;] none, [&gt;] push, [&lt;] pull</text>
<text text-anchor="start" x="14.5" y="-22.8" font-family="sans" font-size="9.00">Pad&#45;Flags: [b]locked, [f]lushing, [b]locking, [E]OS; upper&#45;case is set</text>
<text text-anchor="start" x="14.5" y="-12.8" font-family="sans" font-size="9.00">Pad&#45;Task: [T] has started task, [t] has paused task</text>
</g>
<!-- rtspclientsink0_0x55738435d020_sink_0_0x5573843660e0 -->
<g id="node2" class="node">
<title>rtspclientsink0_0x55738435d020_sink_0_0x5573843660e0</title>
<polygon fill="#ddddff" stroke="black" stroke-dasharray="5,2" points="2548.5,-108 2494.5,-108 2494.5,-88 2548.5,-88 2548.5,-108"/>
<text text-anchor="middle" x="2521.5" y="-100.8" font-family="sans" font-size="9.00">sink_0</text>
<text text-anchor="middle" x="2521.5" y="-90.8" font-family="sans" font-size="9.00">[&gt;][bfb]</text>
</g>
<!-- nvv4l2h264enc0_0x557384354110_sink_0x557384255440 -->
<g id="node3" class="node">
<title>nvv4l2h264enc0_0x557384354110_sink_0x557384255440</title>
<polygon fill="#aaaaff" stroke="black" points="2054.5,-108 2000.5,-108 2000.5,-88 2054.5,-88 2054.5,-108"/>
<text text-anchor="middle" x="2027.5" y="-100.8" font-family="sans" font-size="9.00">sink</text>
<text text-anchor="middle" x="2027.5" y="-90.8" font-family="sans" font-size="9.00">[&gt;][bfb]</text>
</g>
<!-- nvv4l2h264enc0_0x557384354110_src_0x557384255690 -->
<g id="node4" class="node">
<title>nvv4l2h264enc0_0x557384354110_src_0x557384255690</title>
<polygon fill="#ffaaaa" stroke="black" points="2141.5,-108 2087.5,-108 2087.5,-88 2141.5,-88 2141.5,-108"/>
<text text-anchor="middle" x="2114.5" y="-100.8" font-family="sans" font-size="9.00">src</text>
<text text-anchor="middle" x="2114.5" y="-90.8" font-family="sans" font-size="9.00">[&gt;][bfb]</text>
</g>
<!-- nvv4l2h264enc0_0x557384354110_sink_0x557384255440&#45;&gt;nvv4l2h264enc0_0x557384354110_src_0x557384255690 -->
<!-- nvv4l2h264enc0_0x557384354110_src_0x557384255690&#45;&gt;rtspclientsink0_0x55738435d020_sink_0_0x5573843660e0 -->
<g id="edge2" class="edge">
<title>nvv4l2h264enc0_0x557384354110_src_0x557384255690&#45;&gt;rtspclientsink0_0x55738435d020_sink_0_0x5573843660e0</title>
<path fill="none" stroke="black" d="M2141.76,-98C2211.88,-98 2403.64,-98 2484.15,-98"/>
<polygon fill="black" stroke="black" points="2484.3,-101.5 2494.3,-98 2484.3,-94.5 2484.3,-101.5"/>
<text text-anchor="middle" x="2297" y="-100.8" font-family="monospace" font-size="9.00"> &#160;&#160;&#160;&#160;&#160;&#160;&#160;&#160;&#160;&#160;&#160;&#160;&#160;&#160;&#160;&#160;&#160;&#160;&#160;&#160;&#160;&#160;&#160;&#160;&#160;&#160;&#160;&#160;&#160;&#160;&#160;&#160;&#160;&#160;&#160;&#160;&#160;&#160;&#160;&#160;&#160;&#160;&#160;&#160;&#160;&#160;&#160;&#160;&#160;</text>
<text text-anchor="middle" x="2394.3" y="-96.7" font-family="monospace" font-size="6.00">ANY</text>
<text text-anchor="start" x="2153.26" y="-103.7" font-family="monospace" font-size="6.00">video/x&#45;h264</text>
<text text-anchor="start" x="2153.26" y="-96.7" font-family="monospace" font-size="6.00"> &#160;&#160;&#160;&#160;&#160;&#160;stream&#45;format: byte&#45;stream</text>
<text text-anchor="start" x="2153.26" y="-89.7" font-family="monospace" font-size="6.00"> &#160;&#160;&#160;&#160;&#160;&#160;&#160;&#160;&#160;&#160;alignment: { (string)au, (strin... }</text>
</g>
<!-- nvvideoconvert0_0x557384350820_sink_0x557384254fa0 -->
<g id="node5" class="node">
<title>nvvideoconvert0_0x557384350820_sink_0x557384254fa0</title>
<polygon fill="#aaaaff" stroke="black" points="1602.5,-108 1548.5,-108 1548.5,-88 1602.5,-88 1602.5,-108"/>
<text text-anchor="middle" x="1575.5" y="-100.8" font-family="sans" font-size="9.00">sink</text>
<text text-anchor="middle" x="1575.5" y="-90.8" font-family="sans" font-size="9.00">[&gt;][bfb]</text>
</g>
<!-- nvvideoconvert0_0x557384350820_src_0x5573842551f0 -->
<g id="node6" class="node">
<title>nvvideoconvert0_0x557384350820_src_0x5573842551f0</title>
<polygon fill="#ffaaaa" stroke="black" points="1689.5,-108 1635.5,-108 1635.5,-88 1689.5,-88 1689.5,-108"/>
<text text-anchor="middle" x="1662.5" y="-100.8" font-family="sans" font-size="9.00">src</text>
<text text-anchor="middle" x="1662.5" y="-90.8" font-family="sans" font-size="9.00">[&gt;][bfb]</text>
</g>
<!-- nvvideoconvert0_0x557384350820_sink_0x557384254fa0&#45;&gt;nvvideoconvert0_0x557384350820_src_0x5573842551f0 -->
<!-- nvvideoconvert0_0x557384350820_src_0x5573842551f0&#45;&gt;nvv4l2h264enc0_0x557384354110_sink_0x557384255440 -->
<g id="edge4" class="edge">
<title>nvvideoconvert0_0x557384350820_src_0x5573842551f0&#45;&gt;nvv4l2h264enc0_0x557384354110_sink_0x557384255440</title>
<path fill="none" stroke="black" d="M1689.61,-98C1753.29,-98 1916.74,-98 1990.01,-98"/>
<polygon fill="black" stroke="black" points="1990.14,-101.5 2000.14,-98 1990.14,-94.5 1990.14,-101.5"/>
<text text-anchor="middle" x="1845" y="-100.8" font-family="monospace" font-size="9.00"> &#160;&#160;&#160;&#160;&#160;&#160;&#160;&#160;&#160;&#160;&#160;&#160;&#160;&#160;&#160;&#160;&#160;&#160;&#160;&#160;&#160;&#160;&#160;&#160;&#160;&#160;&#160;&#160;&#160;&#160;&#160;&#160;&#160;&#160;&#160;&#160;&#160;&#160;&#160;&#160;&#160;&#160;&#160;&#160;&#160;&#160;&#160;&#160;&#160;</text>
<text text-anchor="start" x="1811.64" y="-110.7" font-family="monospace" font-size="6.00">video/x&#45;raw(memory:NVMM)</text>
<text text-anchor="start" x="1811.64" y="-103.7" font-family="monospace" font-size="6.00"> &#160;&#160;&#160;&#160;&#160;&#160;&#160;&#160;&#160;&#160;&#160;&#160;&#160;&#160;width: [ 1, 2147483647 ]</text>
<text text-anchor="start" x="1811.64" y="-96.7" font-family="monospace" font-size="6.00"> &#160;&#160;&#160;&#160;&#160;&#160;&#160;&#160;&#160;&#160;&#160;&#160;&#160;height: [ 1, 2147483647 ]</text>
<text text-anchor="start" x="1811.64" y="-89.7" font-family="monospace" font-size="6.00"> &#160;&#160;&#160;&#160;&#160;&#160;&#160;&#160;&#160;&#160;&#160;&#160;&#160;format: { (string)I420, (str... }</text>
<text text-anchor="start" x="1811.64" y="-82.7" font-family="monospace" font-size="6.00"> &#160;&#160;&#160;&#160;&#160;&#160;&#160;&#160;&#160;&#160;framerate: [ 0/1, 2147483647/1 ]</text>
<text text-anchor="start" x="1701.11" y="-128.2" font-family="monospace" font-size="6.00">video/x&#45;raw(memory:NVMM)</text>
<text text-anchor="start" x="1701.11" y="-121.2" font-family="monospace" font-size="6.00"> &#160;&#160;&#160;&#160;&#160;&#160;&#160;&#160;&#160;&#160;&#160;&#160;&#160;format: { (string)I420, (str... }</text>
<text text-anchor="start" x="1701.11" y="-114.2" font-family="monospace" font-size="6.00"> &#160;&#160;&#160;&#160;&#160;&#160;&#160;&#160;&#160;&#160;&#160;&#160;&#160;&#160;width: [ 1, 2147483647 ]</text>
<text text-anchor="start" x="1701.11" y="-107.2" font-family="monospace" font-size="6.00"> &#160;&#160;&#160;&#160;&#160;&#160;&#160;&#160;&#160;&#160;&#160;&#160;&#160;height: [ 1, 2147483647 ]</text>
<text text-anchor="start" x="1701.11" y="-100.2" font-family="monospace" font-size="6.00"> &#160;&#160;&#160;&#160;&#160;&#160;&#160;&#160;&#160;&#160;framerate: [ 0/1, 2147483647/1 ]</text>
<text text-anchor="start" x="1701.11" y="-93.2" font-family="monospace" font-size="6.00">video/x&#45;raw</text>
<text text-anchor="start" x="1701.11" y="-86.2" font-family="monospace" font-size="6.00"> &#160;&#160;&#160;&#160;&#160;&#160;&#160;&#160;&#160;&#160;&#160;&#160;&#160;format: { (string)I420, (str... }</text>
<text text-anchor="start" x="1701.11" y="-79.2" font-family="monospace" font-size="6.00"> &#160;&#160;&#160;&#160;&#160;&#160;&#160;&#160;&#160;&#160;&#160;&#160;&#160;&#160;width: [ 1, 2147483647 ]</text>
<text text-anchor="start" x="1701.11" y="-72.2" font-family="monospace" font-size="6.00"> &#160;&#160;&#160;&#160;&#160;&#160;&#160;&#160;&#160;&#160;&#160;&#160;&#160;height: [ 1, 2147483647 ]</text>
<text text-anchor="start" x="1701.11" y="-65.2" font-family="monospace" font-size="6.00"> &#160;&#160;&#160;&#160;&#160;&#160;&#160;&#160;&#160;&#160;framerate: [ 0/1, 2147483647/1 ]</text>
</g>
<!-- nvv4l2decoder0_0x5573842819a0_sink_0x557384254b00 -->
<g id="node7" class="node">
<title>nvv4l2decoder0_0x5573842819a0_sink_0x557384254b00</title>
<polygon fill="#aaaaff" stroke="black" points="1150.5,-108 1096.5,-108 1096.5,-88 1150.5,-88 1150.5,-108"/>
<text text-anchor="middle" x="1123.5" y="-100.8" font-family="sans" font-size="9.00">sink</text>
<text text-anchor="middle" x="1123.5" y="-90.8" font-family="sans" font-size="9.00">[&gt;][bfb]</text>
</g>
<!-- nvv4l2decoder0_0x5573842819a0_src_0x557384254d50 -->
<g id="node8" class="node">
<title>nvv4l2decoder0_0x5573842819a0_src_0x557384254d50</title>
<polygon fill="#ffaaaa" stroke="black" points="1237.5,-108 1183.5,-108 1183.5,-88 1237.5,-88 1237.5,-108"/>
<text text-anchor="middle" x="1210.5" y="-100.8" font-family="sans" font-size="9.00">src</text>
<text text-anchor="middle" x="1210.5" y="-90.8" font-family="sans" font-size="9.00">[&gt;][bfb]</text>
</g>
<!-- nvv4l2decoder0_0x5573842819a0_sink_0x557384254b00&#45;&gt;nvv4l2decoder0_0x5573842819a0_src_0x557384254d50 -->
<!-- nvv4l2decoder0_0x5573842819a0_src_0x557384254d50&#45;&gt;nvvideoconvert0_0x557384350820_sink_0x557384254fa0 -->
<g id="edge6" class="edge">
<title>nvv4l2decoder0_0x5573842819a0_src_0x557384254d50&#45;&gt;nvvideoconvert0_0x557384350820_sink_0x557384254fa0</title>
<path fill="none" stroke="black" d="M1237.61,-98C1301.29,-98 1464.74,-98 1538.01,-98"/>
<polygon fill="black" stroke="black" points="1538.14,-101.5 1548.14,-98 1538.14,-94.5 1538.14,-101.5"/>
<text text-anchor="middle" x="1393" y="-100.8" font-family="monospace" font-size="9.00"> &#160;&#160;&#160;&#160;&#160;&#160;&#160;&#160;&#160;&#160;&#160;&#160;&#160;&#160;&#160;&#160;&#160;&#160;&#160;&#160;&#160;&#160;&#160;&#160;&#160;&#160;&#160;&#160;&#160;&#160;&#160;&#160;&#160;&#160;&#160;&#160;&#160;&#160;&#160;&#160;&#160;&#160;&#160;&#160;&#160;&#160;&#160;&#160;&#160;</text>
<text text-anchor="start" x="1359.64" y="-128.2" font-family="monospace" font-size="6.00">video/x&#45;raw(memory:NVMM)</text>
<text text-anchor="start" x="1359.64" y="-121.2" font-family="monospace" font-size="6.00"> &#160;&#160;&#160;&#160;&#160;&#160;&#160;&#160;&#160;&#160;&#160;&#160;&#160;format: { (string)I420, (str... }</text>
<text text-anchor="start" x="1359.64" y="-114.2" font-family="monospace" font-size="6.00"> &#160;&#160;&#160;&#160;&#160;&#160;&#160;&#160;&#160;&#160;&#160;&#160;&#160;&#160;width: [ 1, 2147483647 ]</text>
<text text-anchor="start" x="1359.64" y="-107.2" font-family="monospace" font-size="6.00"> &#160;&#160;&#160;&#160;&#160;&#160;&#160;&#160;&#160;&#160;&#160;&#160;&#160;height: [ 1, 2147483647 ]</text>
<text text-anchor="start" x="1359.64" y="-100.2" font-family="monospace" font-size="6.00"> &#160;&#160;&#160;&#160;&#160;&#160;&#160;&#160;&#160;&#160;framerate: [ 0/1, 2147483647/1 ]</text>
<text text-anchor="start" x="1359.64" y="-93.2" font-family="monospace" font-size="6.00">video/x&#45;raw</text>
<text text-anchor="start" x="1359.64" y="-86.2" font-family="monospace" font-size="6.00"> &#160;&#160;&#160;&#160;&#160;&#160;&#160;&#160;&#160;&#160;&#160;&#160;&#160;format: { (string)I420, (str... }</text>
<text text-anchor="start" x="1359.64" y="-79.2" font-family="monospace" font-size="6.00"> &#160;&#160;&#160;&#160;&#160;&#160;&#160;&#160;&#160;&#160;&#160;&#160;&#160;&#160;width: [ 1, 2147483647 ]</text>
<text text-anchor="start" x="1359.64" y="-72.2" font-family="monospace" font-size="6.00"> &#160;&#160;&#160;&#160;&#160;&#160;&#160;&#160;&#160;&#160;&#160;&#160;&#160;height: [ 1, 2147483647 ]</text>
<text text-anchor="start" x="1359.64" y="-65.2" font-family="monospace" font-size="6.00"> &#160;&#160;&#160;&#160;&#160;&#160;&#160;&#160;&#160;&#160;framerate: [ 0/1, 2147483647/1 ]</text>
<text text-anchor="start" x="1256.61" y="-107.2" font-family="monospace" font-size="6.00">video/x&#45;raw(memory:NVMM)</text>
<text text-anchor="start" x="1256.61" y="-100.2" font-family="monospace" font-size="6.00"> &#160;&#160;&#160;&#160;&#160;&#160;&#160;&#160;&#160;&#160;&#160;&#160;&#160;&#160;width: [ 1, 2147483647 ]</text>
<text text-anchor="start" x="1256.61" y="-93.2" font-family="monospace" font-size="6.00"> &#160;&#160;&#160;&#160;&#160;&#160;&#160;&#160;&#160;&#160;&#160;&#160;&#160;height: [ 1, 2147483647 ]</text>
<text text-anchor="start" x="1256.61" y="-86.2" font-family="monospace" font-size="6.00"> &#160;&#160;&#160;&#160;&#160;&#160;&#160;&#160;&#160;&#160;framerate: [ 0/1, 2147483647/1 ]</text>
</g>
<!-- h264parse0_0x557384262260_sink_0x557384254660 -->
<g id="node9" class="node">
<title>h264parse0_0x557384262260_sink_0x557384254660</title>
<polygon fill="#aaaaff" stroke="black" points="217,-108 163,-108 163,-88 217,-88 217,-108"/>
<text text-anchor="middle" x="190" y="-100.8" font-family="sans" font-size="9.00">sink</text>
<text text-anchor="middle" x="190" y="-90.8" font-family="sans" font-size="9.00">[&gt;][bfb]</text>
</g>
<!-- h264parse0_0x557384262260_src_0x5573842548b0 -->
<g id="node10" class="node">
<title>h264parse0_0x557384262260_src_0x5573842548b0</title>
<polygon fill="#ffaaaa" stroke="black" points="756.5,-108 702.5,-108 702.5,-88 756.5,-88 756.5,-108"/>
<text text-anchor="middle" x="729.5" y="-100.8" font-family="sans" font-size="9.00">src</text>
<text text-anchor="middle" x="729.5" y="-90.8" font-family="sans" font-size="9.00">[&gt;][bfb]</text>
</g>
<!-- h264parse0_0x557384262260_sink_0x557384254660&#45;&gt;h264parse0_0x557384262260_src_0x5573842548b0 -->
<!-- h264parse0_0x557384262260_src_0x5573842548b0&#45;&gt;nvv4l2decoder0_0x5573842819a0_sink_0x557384254b00 -->
<g id="edge8" class="edge">
<title>h264parse0_0x557384262260_src_0x5573842548b0&#45;&gt;nvv4l2decoder0_0x5573842819a0_sink_0x557384254b00</title>
<path fill="none" stroke="black" d="M756.52,-98C824.55,-98 1007.78,-98 1086.15,-98"/>
<polygon fill="black" stroke="black" points="1086.49,-101.5 1096.49,-98 1086.49,-94.5 1086.49,-101.5"/>
<text text-anchor="middle" x="941" y="-100.8" font-family="monospace" font-size="9.00"> &#160;&#160;&#160;&#160;&#160;&#160;&#160;&#160;&#160;&#160;&#160;&#160;&#160;&#160;&#160;&#160;&#160;&#160;&#160;&#160;&#160;&#160;&#160;&#160;&#160;&#160;&#160;&#160;&#160;&#160;&#160;&#160;&#160;&#160;&#160;&#160;&#160;&#160;&#160;&#160;&#160;&#160;&#160;&#160;&#160;&#160;&#160;&#160;&#160;</text>
<text text-anchor="start" x="911.99" y="-191.2" font-family="monospace" font-size="6.00">image/jpeg</text>
<text text-anchor="start" x="911.99" y="-184.2" font-family="monospace" font-size="6.00">video/x&#45;h264</text>
<text text-anchor="start" x="911.99" y="-177.2" font-family="monospace" font-size="6.00"> &#160;&#160;&#160;&#160;&#160;&#160;stream&#45;format: { (string)byte&#45;stream }</text>
<text text-anchor="start" x="911.99" y="-170.2" font-family="monospace" font-size="6.00"> &#160;&#160;&#160;&#160;&#160;&#160;&#160;&#160;&#160;&#160;alignment: { (string)au }</text>
<text text-anchor="start" x="911.99" y="-163.2" font-family="monospace" font-size="6.00">video/x&#45;h265</text>
<text text-anchor="start" x="911.99" y="-156.2" font-family="monospace" font-size="6.00"> &#160;&#160;&#160;&#160;&#160;&#160;stream&#45;format: { (string)byte&#45;stream }</text>
<text text-anchor="start" x="911.99" y="-149.2" font-family="monospace" font-size="6.00"> &#160;&#160;&#160;&#160;&#160;&#160;&#160;&#160;&#160;&#160;alignment: { (string)au }</text>
<text text-anchor="start" x="911.99" y="-142.2" font-family="monospace" font-size="6.00">video/mpeg</text>
<text text-anchor="start" x="911.99" y="-135.2" font-family="monospace" font-size="6.00"> &#160;&#160;&#160;&#160;&#160;&#160;&#160;&#160;mpegversion: 4</text>
<text text-anchor="start" x="911.99" y="-128.2" font-family="monospace" font-size="6.00"> &#160;&#160;&#160;&#160;&#160;&#160;&#160;systemstream: false</text>
<text text-anchor="start" x="911.99" y="-121.2" font-family="monospace" font-size="6.00"> &#160;&#160;&#160;&#160;&#160;&#160;&#160;&#160;&#160;&#160;&#160;&#160;&#160;parsed: true</text>
<text text-anchor="start" x="911.99" y="-114.2" font-family="monospace" font-size="6.00"> &#160;&#160;&#160;&#160;&#160;&#160;&#160;&#160;&#160;&#160;&#160;&#160;&#160;&#160;width: [ 1, 2147483647 ]</text>
<text text-anchor="start" x="911.99" y="-107.2" font-family="monospace" font-size="6.00"> &#160;&#160;&#160;&#160;&#160;&#160;&#160;&#160;&#160;&#160;&#160;&#160;&#160;height: [ 1, 2147483647 ]</text>
<text text-anchor="start" x="911.99" y="-100.2" font-family="monospace" font-size="6.00">video/mpeg</text>
<text text-anchor="start" x="911.99" y="-93.2" font-family="monospace" font-size="6.00"> &#160;&#160;&#160;&#160;&#160;&#160;&#160;&#160;mpegversion: [ 1, 2 ]</text>
<text text-anchor="start" x="911.99" y="-86.2" font-family="monospace" font-size="6.00"> &#160;&#160;&#160;&#160;&#160;&#160;&#160;systemstream: false</text>
<text text-anchor="start" x="911.99" y="-79.2" font-family="monospace" font-size="6.00"> &#160;&#160;&#160;&#160;&#160;&#160;&#160;&#160;&#160;&#160;&#160;&#160;&#160;parsed: true</text>
<text text-anchor="start" x="911.99" y="-72.2" font-family="monospace" font-size="6.00"> &#160;&#160;&#160;&#160;&#160;&#160;&#160;&#160;&#160;&#160;&#160;&#160;&#160;&#160;width: [ 1, 2147483647 ]</text>
<text text-anchor="start" x="911.99" y="-65.2" font-family="monospace" font-size="6.00"> &#160;&#160;&#160;&#160;&#160;&#160;&#160;&#160;&#160;&#160;&#160;&#160;&#160;height: [ 1, 2147483647 ]</text>
<text text-anchor="start" x="911.99" y="-58.2" font-family="monospace" font-size="6.00">video/x&#45;divx</text>
<text text-anchor="start" x="911.99" y="-51.2" font-family="monospace" font-size="6.00"> &#160;&#160;&#160;&#160;&#160;&#160;&#160;&#160;divxversion: [ 4, 5 ]</text>
<text text-anchor="start" x="911.99" y="-44.2" font-family="monospace" font-size="6.00"> &#160;&#160;&#160;&#160;&#160;&#160;&#160;&#160;&#160;&#160;&#160;&#160;&#160;&#160;width: [ 1, 2147483647 ]</text>
<text text-anchor="start" x="911.99" y="-37.2" font-family="monospace" font-size="6.00"> &#160;&#160;&#160;&#160;&#160;&#160;&#160;&#160;&#160;&#160;&#160;&#160;&#160;height: [ 1, 2147483647 ]</text>
<text text-anchor="start" x="911.99" y="-30.2" font-family="monospace" font-size="6.00">video/x&#45;av1</text>
<text text-anchor="start" x="911.99" y="-23.2" font-family="monospace" font-size="6.00">video/x&#45;vp8</text>
<text text-anchor="start" x="911.99" y="-16.2" font-family="monospace" font-size="6.00">video/x&#45;vp9</text>
<text text-anchor="start" x="911.99" y="-9.2" font-family="monospace" font-size="6.00"> &#160;&#160;&#160;&#160;&#160;&#160;&#160;&#160;&#160;&#160;&#160;&#160;&#160;&#160;width: [ 1, 2147483647 ]</text>
<text text-anchor="start" x="911.99" y="-2.2" font-family="monospace" font-size="6.00"> &#160;&#160;&#160;&#160;&#160;&#160;&#160;&#160;&#160;&#160;&#160;&#160;&#160;height: [ 1, 2147483647 ]</text>
<text text-anchor="start" x="768.02" y="-107.2" font-family="monospace" font-size="6.00">video/x&#45;h264</text>
<text text-anchor="start" x="768.02" y="-100.2" font-family="monospace" font-size="6.00"> &#160;&#160;&#160;&#160;&#160;&#160;&#160;&#160;&#160;&#160;&#160;&#160;&#160;parsed: true</text>
<text text-anchor="start" x="768.02" y="-93.2" font-family="monospace" font-size="6.00"> &#160;&#160;&#160;&#160;&#160;&#160;stream&#45;format: { (string)avc, (stri... }</text>
<text text-anchor="start" x="768.02" y="-86.2" font-family="monospace" font-size="6.00"> &#160;&#160;&#160;&#160;&#160;&#160;&#160;&#160;&#160;&#160;alignment: { (string)au, (strin... }</text>
</g>
<!-- qtdemux0_0x55738425c110_sink_0x557384254410 -->
<g id="node11" class="node">
<title>qtdemux0_0x55738425c110_sink_0x557384254410</title>
<polygon fill="#aaaaff" stroke="black" points="756.5,-212 702.5,-212 702.5,-192 756.5,-192 756.5,-212"/>
<text text-anchor="middle" x="729.5" y="-204.8" font-family="sans" font-size="9.00">sink</text>
<text text-anchor="middle" x="729.5" y="-194.8" font-family="sans" font-size="9.00">[&lt;][bfb][T]</text>
</g>
<!-- filesrc0_0x55738424c420_src_0x5573842541c0 -->
<g id="node12" class="node">
<title>filesrc0_0x55738424c420_src_0x5573842541c0</title>
<polygon fill="#ffaaaa" stroke="black" points="217,-212 163,-212 163,-192 217,-192 217,-212"/>
<text text-anchor="middle" x="190" y="-204.8" font-family="sans" font-size="9.00">src</text>
<text text-anchor="middle" x="190" y="-194.8" font-family="sans" font-size="9.00">[&lt;][bfb]</text>
</g>
<!-- filesrc0_0x55738424c420_src_0x5573842541c0&#45;&gt;qtdemux0_0x55738425c110_sink_0x557384254410 -->
<g id="edge9" class="edge">
<title>filesrc0_0x55738424c420_src_0x5573842541c0&#45;&gt;qtdemux0_0x55738425c110_sink_0x557384254410</title>
<path fill="none" stroke="black" d="M217.29,-202C305.43,-202 590.64,-202 692.19,-202"/>
<polygon fill="black" stroke="black" points="692.26,-205.5 702.26,-202 692.26,-198.5 692.26,-205.5"/>
<text text-anchor="middle" x="519" y="-204.8" font-family="monospace" font-size="9.00"> &#160;&#160;&#160;&#160;&#160;&#160;&#160;&#160;&#160;&#160;&#160;&#160;&#160;&#160;&#160;&#160;&#160;&#160;&#160;&#160;&#160;&#160;&#160;&#160;&#160;&#160;&#160;&#160;&#160;&#160;&#160;&#160;&#160;&#160;&#160;&#160;&#160;&#160;&#160;&#160;&#160;&#160;&#160;&#160;&#160;&#160;&#160;&#160;&#160;</text>
<text text-anchor="start" x="570.26" y="-211.2" font-family="monospace" font-size="6.00">video/quicktime</text>
<text text-anchor="start" x="570.26" y="-204.2" font-family="monospace" font-size="6.00">video/mj2</text>
<text text-anchor="start" x="570.26" y="-197.2" font-family="monospace" font-size="6.00">audio/x&#45;m4a</text>
<text text-anchor="start" x="570.26" y="-190.2" font-family="monospace" font-size="6.00">application/x&#45;3gp</text>
<text text-anchor="middle" x="317.29" y="-200.7" font-family="monospace" font-size="6.00">ANY</text>
</g>
</g>
</svg>
