<?xml version="1.0" encoding="UTF-8" standalone="no"?>
<!DOCTYPE svg PUBLIC "-//W3C//DTD SVG 1.1//EN"
 "http://www.w3.org/Graphics/SVG/1.1/DTD/svg11.dtd">
<!-- Generated by graphviz version 2.43.0 (0)
 -->
<!-- Title: pipeline Pages: 1 -->
<svg width="2296pt" height="246pt"
 viewBox="0.00 0.00 2296.00 246.00" xmlns="http://www.w3.org/2000/svg" xmlns:xlink="http://www.w3.org/1999/xlink">
<g id="graph0" class="graph" transform="scale(1 1) rotate(0) translate(4 242)">
<title>pipeline</title>
<polygon fill="white" stroke="transparent" points="-4,4 -4,-242 2292,-242 2292,4 -4,4"/>
<text text-anchor="middle" x="1144" y="-226" font-family="sans" font-size="10.00">&lt;GstPipeline&gt;</text>
<text text-anchor="middle" x="1144" y="-215" font-family="sans" font-size="10.00">pipeline0</text>
<text text-anchor="middle" x="1144" y="-204" font-family="sans" font-size="10.00">[=] &#45;&gt; [&gt;]</text>
<g id="clust1" class="cluster">
<title>cluster_rtspclientsink0_0x55f29fb0e890</title>
<path fill="#ffffff" stroke="black" d="M2130,-66C2130,-66 2276,-66 2276,-66 2282,-66 2288,-72 2288,-78 2288,-78 2288,-177 2288,-177 2288,-183 2282,-189 2276,-189 2276,-189 2130,-189 2130,-189 2124,-189 2118,-183 2118,-177 2118,-177 2118,-78 2118,-78 2118,-72 2124,-66 2130,-66"/>
<text text-anchor="middle" x="2203" y="-178.6" font-family="Bitstream Vera Sans" font-size="8.00">GstRTSPClientSink</text>
<text text-anchor="middle" x="2203" y="-169.6" font-family="Bitstream Vera Sans" font-size="8.00">rtspclientsink0</text>
<text text-anchor="middle" x="2203" y="-160.6" font-family="Bitstream Vera Sans" font-size="8.00">[&gt;]</text>
<text text-anchor="middle" x="2203" y="-151.6" font-family="Bitstream Vera Sans" font-size="8.00">parent=(GstPipeline) pipeline0</text>
<text text-anchor="middle" x="2203" y="-142.6" font-family="Bitstream Vera Sans" font-size="8.00">location=&quot;rtsp://127.0.0.1:8554/test&quot;</text>
<text text-anchor="middle" x="2203" y="-133.6" font-family="Bitstream Vera Sans" font-size="8.00">proxy&#45;id=NULL</text>
<text text-anchor="middle" x="2203" y="-124.6" font-family="Bitstream Vera Sans" font-size="8.00">proxy&#45;pw=NULL</text>
</g>
<g id="clust2" class="cluster">
<title>cluster_rtspclientsink0_0x55f29fb0e890_sink</title>
</g>
<g id="clust4" class="cluster">
<title>cluster_x264enc0_0x55f29fb0b8f0</title>
<path fill="#aaffaa" stroke="black" d="M1678,-66C1678,-66 1827,-66 1827,-66 1833,-66 1839,-72 1839,-78 1839,-78 1839,-150 1839,-150 1839,-156 1833,-162 1827,-162 1827,-162 1678,-162 1678,-162 1672,-162 1666,-156 1666,-150 1666,-150 1666,-78 1666,-78 1666,-72 1672,-66 1678,-66"/>
<text text-anchor="middle" x="1752.5" y="-151.6" font-family="Bitstream Vera Sans" font-size="8.00">GstX264Enc</text>
<text text-anchor="middle" x="1752.5" y="-142.6" font-family="Bitstream Vera Sans" font-size="8.00">x264enc0</text>
<text text-anchor="middle" x="1752.5" y="-133.6" font-family="Bitstream Vera Sans" font-size="8.00">[&gt;]</text>
<text text-anchor="middle" x="1752.5" y="-124.6" font-family="Bitstream Vera Sans" font-size="8.00">parent=(GstPipeline) pipeline0</text>
</g>
<g id="clust5" class="cluster">
<title>cluster_x264enc0_0x55f29fb0b8f0_sink</title>
</g>
<g id="clust6" class="cluster">
<title>cluster_x264enc0_0x55f29fb0b8f0_src</title>
</g>
<g id="clust7" class="cluster">
<title>cluster_videoconvert0_0x55f29fb06aa0</title>
<path fill="#aaffaa" stroke="black" d="M1226,-66C1226,-66 1375,-66 1375,-66 1381,-66 1387,-72 1387,-78 1387,-78 1387,-159 1387,-159 1387,-165 1381,-171 1375,-171 1375,-171 1226,-171 1226,-171 1220,-171 1214,-165 1214,-159 1214,-159 1214,-78 1214,-78 1214,-72 1220,-66 1226,-66"/>
<text text-anchor="middle" x="1300.5" y="-160.6" font-family="Bitstream Vera Sans" font-size="8.00">GstVideoConvert</text>
<text text-anchor="middle" x="1300.5" y="-151.6" font-family="Bitstream Vera Sans" font-size="8.00">videoconvert0</text>
<text text-anchor="middle" x="1300.5" y="-142.6" font-family="Bitstream Vera Sans" font-size="8.00">[&gt;]</text>
<text text-anchor="middle" x="1300.5" y="-133.6" font-family="Bitstream Vera Sans" font-size="8.00">parent=(GstPipeline) pipeline0</text>
<text text-anchor="middle" x="1300.5" y="-124.6" font-family="Bitstream Vera Sans" font-size="8.00">qos=TRUE</text>
</g>
<g id="clust8" class="cluster">
<title>cluster_videoconvert0_0x55f29fb06aa0_sink</title>
</g>
<g id="clust9" class="cluster">
<title>cluster_videoconvert0_0x55f29fb06aa0_src</title>
</g>
<g id="clust10" class="cluster">
<title>cluster_avdec_h264_0_0x55f29faef960</title>
<path fill="#aaffaa" stroke="black" d="M774,-66C774,-66 923,-66 923,-66 929,-66 935,-72 935,-78 935,-78 935,-150 935,-150 935,-156 929,-162 923,-162 923,-162 774,-162 774,-162 768,-162 762,-156 762,-150 762,-150 762,-78 762,-78 762,-72 768,-66 774,-66"/>
<text text-anchor="middle" x="848.5" y="-151.6" font-family="Bitstream Vera Sans" font-size="8.00">avdec_h264</text>
<text text-anchor="middle" x="848.5" y="-142.6" font-family="Bitstream Vera Sans" font-size="8.00">avdec_h264&#45;0</text>
<text text-anchor="middle" x="848.5" y="-133.6" font-family="Bitstream Vera Sans" font-size="8.00">[&gt;]</text>
<text text-anchor="middle" x="848.5" y="-124.6" font-family="Bitstream Vera Sans" font-size="8.00">parent=(GstPipeline) pipeline0</text>
</g>
<g id="clust11" class="cluster">
<title>cluster_avdec_h264_0_0x55f29faef960_sink</title>
</g>
<g id="clust12" class="cluster">
<title>cluster_avdec_h264_0_0x55f29faef960_src</title>
</g>
<g id="clust13" class="cluster">
<title>cluster_rtph264depay0_0x55f29fa46160</title>
<path fill="#aaffaa" stroke="black" d="M119.5,-66C119.5,-66 471,-66 471,-66 477,-66 483,-72 483,-78 483,-78 483,-159 483,-159 483,-165 477,-171 471,-171 471,-171 119.5,-171 119.5,-171 113.5,-171 107.5,-165 107.5,-159 107.5,-159 107.5,-78 107.5,-78 107.5,-72 113.5,-66 119.5,-66"/>
<text text-anchor="middle" x="295.25" y="-160.6" font-family="Bitstream Vera Sans" font-size="8.00">GstRtpH264Depay</text>
<text text-anchor="middle" x="295.25" y="-151.6" font-family="Bitstream Vera Sans" font-size="8.00">rtph264depay0</text>
<text text-anchor="middle" x="295.25" y="-142.6" font-family="Bitstream Vera Sans" font-size="8.00">[&gt;]</text>
<text text-anchor="middle" x="295.25" y="-133.6" font-family="Bitstream Vera Sans" font-size="8.00">parent=(GstPipeline) pipeline0</text>
<text text-anchor="middle" x="295.25" y="-124.6" font-family="Bitstream Vera Sans" font-size="8.00">stats=application/x&#45;rtp&#45;depayload&#45;stats, clock_rate=(uint)0, npt&#45;start=(guint64)0, npt…</text>
</g>
<g id="clust14" class="cluster">
<title>cluster_rtph264depay0_0x55f29fa46160_sink</title>
</g>
<g id="clust15" class="cluster">
<title>cluster_rtph264depay0_0x55f29fa46160_src</title>
</g>
<!-- legend -->
<g id="node1" class="node">
<title>legend</title>
<polygon fill="lightgrey" stroke="black" points="359,-58 0,-58 0,0 359,0 359,-58"/>
<text text-anchor="start" x="4" y="-46.8" font-family="sans" font-size="9.00">Legend</text>
<text text-anchor="start" x="4" y="-36.8" font-family="sans" font-size="9.00">Element&#45;States: [~] void&#45;pending, [0] null, [&#45;] ready, [=] paused, [&gt;] playing</text>
<text text-anchor="start" x="4" y="-26.8" font-family="sans" font-size="9.00">Pad&#45;Activation: [&#45;] none, [&gt;] push, [&lt;] pull</text>
<text text-anchor="start" x="4" y="-16.8" font-family="sans" font-size="9.00">Pad&#45;Flags: [b]locked, [f]lushing, [b]locking, [E]OS; upper&#45;case is set</text>
<text text-anchor="start" x="4" y="-6.8" font-family="sans" font-size="9.00">Pad&#45;Task: [T] has started task, [t] has paused task</text>
</g>
<!-- rtspclientsink0_0x55f29fb0e890_sink_0_0x55f29fb18090 -->
<g id="node2" class="node">
<title>rtspclientsink0_0x55f29fb0e890_sink_0_0x55f29fb18090</title>
<polygon fill="#ddddff" stroke="black" stroke-dasharray="5,2" points="2230,-102 2176,-102 2176,-82 2230,-82 2230,-102"/>
<text text-anchor="middle" x="2203" y="-94.8" font-family="sans" font-size="9.00">sink_0</text>
<text text-anchor="middle" x="2203" y="-84.8" font-family="sans" font-size="9.00">[&gt;][bfb]</text>
</g>
<!-- x264enc0_0x55f29fb0b8f0_sink_0x55f29fa48f90 -->
<g id="node3" class="node">
<title>x264enc0_0x55f29fb0b8f0_sink_0x55f29fa48f90</title>
<polygon fill="#aaaaff" stroke="black" points="1736,-102 1682,-102 1682,-82 1736,-82 1736,-102"/>
<text text-anchor="middle" x="1709" y="-94.8" font-family="sans" font-size="9.00">sink</text>
<text text-anchor="middle" x="1709" y="-84.8" font-family="sans" font-size="9.00">[&gt;][bfb]</text>
</g>
<!-- x264enc0_0x55f29fb0b8f0_src_0x55f29fa491e0 -->
<g id="node4" class="node">
<title>x264enc0_0x55f29fb0b8f0_src_0x55f29fa491e0</title>
<polygon fill="#ffaaaa" stroke="black" points="1823,-102 1769,-102 1769,-82 1823,-82 1823,-102"/>
<text text-anchor="middle" x="1796" y="-94.8" font-family="sans" font-size="9.00">src</text>
<text text-anchor="middle" x="1796" y="-84.8" font-family="sans" font-size="9.00">[&gt;][bfb]</text>
</g>
<!-- x264enc0_0x55f29fb0b8f0_sink_0x55f29fa48f90&#45;&gt;x264enc0_0x55f29fb0b8f0_src_0x55f29fa491e0 -->
<!-- x264enc0_0x55f29fb0b8f0_src_0x55f29fa491e0&#45;&gt;rtspclientsink0_0x55f29fb0e890_sink_0_0x55f29fb18090 -->
<g id="edge2" class="edge">
<title>x264enc0_0x55f29fb0b8f0_src_0x55f29fa491e0&#45;&gt;rtspclientsink0_0x55f29fb0e890_sink_0_0x55f29fb18090</title>
<path fill="none" stroke="black" d="M1823.26,-92C1893.38,-92 2085.14,-92 2165.65,-92"/>
<polygon fill="black" stroke="black" points="2165.8,-95.5 2175.8,-92 2165.8,-88.5 2165.8,-95.5"/>
<text text-anchor="middle" x="1978.5" y="-94.8" font-family="monospace" font-size="9.00"> &#160;&#160;&#160;&#160;&#160;&#160;&#160;&#160;&#160;&#160;&#160;&#160;&#160;&#160;&#160;&#160;&#160;&#160;&#160;&#160;&#160;&#160;&#160;&#160;&#160;&#160;&#160;&#160;&#160;&#160;&#160;&#160;&#160;&#160;&#160;&#160;&#160;&#160;&#160;&#160;&#160;&#160;&#160;&#160;&#160;&#160;&#160;&#160;&#160;</text>
<text text-anchor="middle" x="2075.8" y="-90.7" font-family="monospace" font-size="6.00">ANY</text>
<text text-anchor="start" x="1834.76" y="-111.7" font-family="monospace" font-size="6.00">video/x&#45;h264</text>
<text text-anchor="start" x="1834.76" y="-104.7" font-family="monospace" font-size="6.00"> &#160;&#160;&#160;&#160;&#160;&#160;&#160;&#160;&#160;&#160;framerate: [ 0/1, 2147483647/1 ]</text>
<text text-anchor="start" x="1834.76" y="-97.7" font-family="monospace" font-size="6.00"> &#160;&#160;&#160;&#160;&#160;&#160;&#160;&#160;&#160;&#160;&#160;&#160;&#160;&#160;width: [ 1, 2147483647 ]</text>
<text text-anchor="start" x="1834.76" y="-90.7" font-family="monospace" font-size="6.00"> &#160;&#160;&#160;&#160;&#160;&#160;&#160;&#160;&#160;&#160;&#160;&#160;&#160;height: [ 1, 2147483647 ]</text>
<text text-anchor="start" x="1834.76" y="-83.7" font-family="monospace" font-size="6.00"> &#160;&#160;&#160;&#160;&#160;&#160;stream&#45;format: { (string)avc, (stri... }</text>
<text text-anchor="start" x="1834.76" y="-76.7" font-family="monospace" font-size="6.00"> &#160;&#160;&#160;&#160;&#160;&#160;&#160;&#160;&#160;&#160;alignment: au</text>
<text text-anchor="start" x="1834.76" y="-69.7" font-family="monospace" font-size="6.00"> &#160;&#160;&#160;&#160;&#160;&#160;&#160;&#160;&#160;&#160;&#160;&#160;profile: { (string)high&#45;4:4:4... }</text>
</g>
<!-- videoconvert0_0x55f29fb06aa0_sink_0x55f29fa48af0 -->
<g id="node5" class="node">
<title>videoconvert0_0x55f29fb06aa0_sink_0x55f29fa48af0</title>
<polygon fill="#aaaaff" stroke="black" points="1284,-102 1230,-102 1230,-82 1284,-82 1284,-102"/>
<text text-anchor="middle" x="1257" y="-94.8" font-family="sans" font-size="9.00">sink</text>
<text text-anchor="middle" x="1257" y="-84.8" font-family="sans" font-size="9.00">[&gt;][bfb]</text>
</g>
<!-- videoconvert0_0x55f29fb06aa0_src_0x55f29fa48d40 -->
<g id="node6" class="node">
<title>videoconvert0_0x55f29fb06aa0_src_0x55f29fa48d40</title>
<polygon fill="#ffaaaa" stroke="black" points="1371,-102 1317,-102 1317,-82 1371,-82 1371,-102"/>
<text text-anchor="middle" x="1344" y="-94.8" font-family="sans" font-size="9.00">src</text>
<text text-anchor="middle" x="1344" y="-84.8" font-family="sans" font-size="9.00">[&gt;][bfb]</text>
</g>
<!-- videoconvert0_0x55f29fb06aa0_sink_0x55f29fa48af0&#45;&gt;videoconvert0_0x55f29fb06aa0_src_0x55f29fa48d40 -->
<!-- videoconvert0_0x55f29fb06aa0_src_0x55f29fa48d40&#45;&gt;x264enc0_0x55f29fb0b8f0_sink_0x55f29fa48f90 -->
<g id="edge4" class="edge">
<title>videoconvert0_0x55f29fb06aa0_src_0x55f29fa48d40&#45;&gt;x264enc0_0x55f29fb0b8f0_sink_0x55f29fa48f90</title>
<path fill="none" stroke="black" d="M1371.11,-92C1434.79,-92 1598.24,-92 1671.51,-92"/>
<polygon fill="black" stroke="black" points="1671.64,-95.5 1681.64,-92 1671.64,-88.5 1671.64,-95.5"/>
<text text-anchor="middle" x="1526.5" y="-94.8" font-family="monospace" font-size="9.00"> &#160;&#160;&#160;&#160;&#160;&#160;&#160;&#160;&#160;&#160;&#160;&#160;&#160;&#160;&#160;&#160;&#160;&#160;&#160;&#160;&#160;&#160;&#160;&#160;&#160;&#160;&#160;&#160;&#160;&#160;&#160;&#160;&#160;&#160;&#160;&#160;&#160;&#160;&#160;&#160;&#160;&#160;&#160;&#160;&#160;&#160;&#160;&#160;&#160;</text>
<text text-anchor="start" x="1493.14" y="-104.7" font-family="monospace" font-size="6.00">video/x&#45;raw</text>
<text text-anchor="start" x="1493.14" y="-97.7" font-family="monospace" font-size="6.00"> &#160;&#160;&#160;&#160;&#160;&#160;&#160;&#160;&#160;&#160;framerate: [ 0/1, 2147483647/1 ]</text>
<text text-anchor="start" x="1493.14" y="-90.7" font-family="monospace" font-size="6.00"> &#160;&#160;&#160;&#160;&#160;&#160;&#160;&#160;&#160;&#160;&#160;&#160;&#160;&#160;width: [ 16, 2147483647 ]</text>
<text text-anchor="start" x="1493.14" y="-83.7" font-family="monospace" font-size="6.00"> &#160;&#160;&#160;&#160;&#160;&#160;&#160;&#160;&#160;&#160;&#160;&#160;&#160;height: [ 16, 2147483647 ]</text>
<text text-anchor="start" x="1493.14" y="-76.7" font-family="monospace" font-size="6.00"> &#160;&#160;&#160;&#160;&#160;&#160;&#160;&#160;&#160;&#160;&#160;&#160;&#160;format: { (string)Y444, (str... }</text>
<text text-anchor="start" x="1382.61" y="-122.2" font-family="monospace" font-size="6.00">video/x&#45;raw</text>
<text text-anchor="start" x="1382.61" y="-115.2" font-family="monospace" font-size="6.00"> &#160;&#160;&#160;&#160;&#160;&#160;&#160;&#160;&#160;&#160;&#160;&#160;&#160;format: { (string)I420, (str... }</text>
<text text-anchor="start" x="1382.61" y="-108.2" font-family="monospace" font-size="6.00"> &#160;&#160;&#160;&#160;&#160;&#160;&#160;&#160;&#160;&#160;&#160;&#160;&#160;&#160;width: [ 1, 2147483647 ]</text>
<text text-anchor="start" x="1382.61" y="-101.2" font-family="monospace" font-size="6.00"> &#160;&#160;&#160;&#160;&#160;&#160;&#160;&#160;&#160;&#160;&#160;&#160;&#160;height: [ 1, 2147483647 ]</text>
<text text-anchor="start" x="1382.61" y="-94.2" font-family="monospace" font-size="6.00"> &#160;&#160;&#160;&#160;&#160;&#160;&#160;&#160;&#160;&#160;framerate: [ 0/1, 2147483647/1 ]</text>
<text text-anchor="start" x="1382.61" y="-87.2" font-family="monospace" font-size="6.00">video/x&#45;raw(ANY)</text>
<text text-anchor="start" x="1382.61" y="-80.2" font-family="monospace" font-size="6.00"> &#160;&#160;&#160;&#160;&#160;&#160;&#160;&#160;&#160;&#160;&#160;&#160;&#160;format: { (string)I420, (str... }</text>
<text text-anchor="start" x="1382.61" y="-73.2" font-family="monospace" font-size="6.00"> &#160;&#160;&#160;&#160;&#160;&#160;&#160;&#160;&#160;&#160;&#160;&#160;&#160;&#160;width: [ 1, 2147483647 ]</text>
<text text-anchor="start" x="1382.61" y="-66.2" font-family="monospace" font-size="6.00"> &#160;&#160;&#160;&#160;&#160;&#160;&#160;&#160;&#160;&#160;&#160;&#160;&#160;height: [ 1, 2147483647 ]</text>
<text text-anchor="start" x="1382.61" y="-59.2" font-family="monospace" font-size="6.00"> &#160;&#160;&#160;&#160;&#160;&#160;&#160;&#160;&#160;&#160;framerate: [ 0/1, 2147483647/1 ]</text>
</g>
<!-- avdec_h264_0_0x55f29faef960_sink_0x55f29fa48650 -->
<g id="node7" class="node">
<title>avdec_h264_0_0x55f29faef960_sink_0x55f29fa48650</title>
<polygon fill="#aaaaff" stroke="black" points="832,-102 778,-102 778,-82 832,-82 832,-102"/>
<text text-anchor="middle" x="805" y="-94.8" font-family="sans" font-size="9.00">sink</text>
<text text-anchor="middle" x="805" y="-84.8" font-family="sans" font-size="9.00">[&gt;][bfb]</text>
</g>
<!-- avdec_h264_0_0x55f29faef960_src_0x55f29fa488a0 -->
<g id="node8" class="node">
<title>avdec_h264_0_0x55f29faef960_src_0x55f29fa488a0</title>
<polygon fill="#ffaaaa" stroke="black" points="919,-102 865,-102 865,-82 919,-82 919,-102"/>
<text text-anchor="middle" x="892" y="-94.8" font-family="sans" font-size="9.00">src</text>
<text text-anchor="middle" x="892" y="-84.8" font-family="sans" font-size="9.00">[&gt;][bfb]</text>
</g>
<!-- avdec_h264_0_0x55f29faef960_sink_0x55f29fa48650&#45;&gt;avdec_h264_0_0x55f29faef960_src_0x55f29fa488a0 -->
<!-- avdec_h264_0_0x55f29faef960_src_0x55f29fa488a0&#45;&gt;videoconvert0_0x55f29fb06aa0_sink_0x55f29fa48af0 -->
<g id="edge6" class="edge">
<title>avdec_h264_0_0x55f29faef960_src_0x55f29fa488a0&#45;&gt;videoconvert0_0x55f29fb06aa0_sink_0x55f29fa48af0</title>
<path fill="none" stroke="black" d="M919.11,-92C982.79,-92 1146.24,-92 1219.51,-92"/>
<polygon fill="black" stroke="black" points="1219.64,-95.5 1229.64,-92 1219.64,-88.5 1219.64,-95.5"/>
<text text-anchor="middle" x="1074.5" y="-94.8" font-family="monospace" font-size="9.00"> &#160;&#160;&#160;&#160;&#160;&#160;&#160;&#160;&#160;&#160;&#160;&#160;&#160;&#160;&#160;&#160;&#160;&#160;&#160;&#160;&#160;&#160;&#160;&#160;&#160;&#160;&#160;&#160;&#160;&#160;&#160;&#160;&#160;&#160;&#160;&#160;&#160;&#160;&#160;&#160;&#160;&#160;&#160;&#160;&#160;&#160;&#160;&#160;&#160;</text>
<text text-anchor="start" x="1041.14" y="-122.2" font-family="monospace" font-size="6.00">video/x&#45;raw</text>
<text text-anchor="start" x="1041.14" y="-115.2" font-family="monospace" font-size="6.00"> &#160;&#160;&#160;&#160;&#160;&#160;&#160;&#160;&#160;&#160;&#160;&#160;&#160;format: { (string)I420, (str... }</text>
<text text-anchor="start" x="1041.14" y="-108.2" font-family="monospace" font-size="6.00"> &#160;&#160;&#160;&#160;&#160;&#160;&#160;&#160;&#160;&#160;&#160;&#160;&#160;&#160;width: [ 1, 2147483647 ]</text>
<text text-anchor="start" x="1041.14" y="-101.2" font-family="monospace" font-size="6.00"> &#160;&#160;&#160;&#160;&#160;&#160;&#160;&#160;&#160;&#160;&#160;&#160;&#160;height: [ 1, 2147483647 ]</text>
<text text-anchor="start" x="1041.14" y="-94.2" font-family="monospace" font-size="6.00"> &#160;&#160;&#160;&#160;&#160;&#160;&#160;&#160;&#160;&#160;framerate: [ 0/1, 2147483647/1 ]</text>
<text text-anchor="start" x="1041.14" y="-87.2" font-family="monospace" font-size="6.00">video/x&#45;raw(ANY)</text>
<text text-anchor="start" x="1041.14" y="-80.2" font-family="monospace" font-size="6.00"> &#160;&#160;&#160;&#160;&#160;&#160;&#160;&#160;&#160;&#160;&#160;&#160;&#160;format: { (string)I420, (str... }</text>
<text text-anchor="start" x="1041.14" y="-73.2" font-family="monospace" font-size="6.00"> &#160;&#160;&#160;&#160;&#160;&#160;&#160;&#160;&#160;&#160;&#160;&#160;&#160;&#160;width: [ 1, 2147483647 ]</text>
<text text-anchor="start" x="1041.14" y="-66.2" font-family="monospace" font-size="6.00"> &#160;&#160;&#160;&#160;&#160;&#160;&#160;&#160;&#160;&#160;&#160;&#160;&#160;height: [ 1, 2147483647 ]</text>
<text text-anchor="start" x="1041.14" y="-59.2" font-family="monospace" font-size="6.00"> &#160;&#160;&#160;&#160;&#160;&#160;&#160;&#160;&#160;&#160;framerate: [ 0/1, 2147483647/1 ]</text>
<text text-anchor="start" x="930.61" y="-94.2" font-family="monospace" font-size="6.00">video/x&#45;raw</text>
<text text-anchor="start" x="930.61" y="-87.2" font-family="monospace" font-size="6.00"> &#160;&#160;&#160;&#160;&#160;&#160;&#160;&#160;&#160;&#160;&#160;&#160;&#160;format: { (string)I420, (str... }</text>
</g>
<!-- rtph264depay0_0x55f29fa46160_sink_0x55f29fa481b0 -->
<g id="node9" class="node">
<title>rtph264depay0_0x55f29fa46160_sink_0x55f29fa481b0</title>
<polygon fill="#aaaaff" stroke="black" points="206.5,-102 152.5,-102 152.5,-82 206.5,-82 206.5,-102"/>
<text text-anchor="middle" x="179.5" y="-94.8" font-family="sans" font-size="9.00">sink</text>
<text text-anchor="middle" x="179.5" y="-84.8" font-family="sans" font-size="9.00">[&gt;][bfb]</text>
</g>
<!-- rtph264depay0_0x55f29fa46160_src_0x55f29fa48400 -->
<g id="node10" class="node">
<title>rtph264depay0_0x55f29fa46160_src_0x55f29fa48400</title>
<polygon fill="#ffaaaa" stroke="black" points="438,-102 384,-102 384,-82 438,-82 438,-102"/>
<text text-anchor="middle" x="411" y="-94.8" font-family="sans" font-size="9.00">src</text>
<text text-anchor="middle" x="411" y="-84.8" font-family="sans" font-size="9.00">[&gt;][bfb]</text>
</g>
<!-- rtph264depay0_0x55f29fa46160_sink_0x55f29fa481b0&#45;&gt;rtph264depay0_0x55f29fa46160_src_0x55f29fa48400 -->
<!-- rtph264depay0_0x55f29fa46160_src_0x55f29fa48400&#45;&gt;avdec_h264_0_0x55f29faef960_sink_0x55f29fa48650 -->
<g id="edge8" class="edge">
<title>rtph264depay0_0x55f29fa46160_src_0x55f29fa48400&#45;&gt;avdec_h264_0_0x55f29faef960_sink_0x55f29fa48650</title>
<path fill="none" stroke="black" d="M438.02,-92C506.05,-92 689.28,-92 767.65,-92"/>
<polygon fill="black" stroke="black" points="767.99,-95.5 777.99,-92 767.99,-88.5 767.99,-95.5"/>
<text text-anchor="middle" x="622.5" y="-94.8" font-family="monospace" font-size="9.00"> &#160;&#160;&#160;&#160;&#160;&#160;&#160;&#160;&#160;&#160;&#160;&#160;&#160;&#160;&#160;&#160;&#160;&#160;&#160;&#160;&#160;&#160;&#160;&#160;&#160;&#160;&#160;&#160;&#160;&#160;&#160;&#160;&#160;&#160;&#160;&#160;&#160;&#160;&#160;&#160;&#160;&#160;&#160;&#160;&#160;&#160;&#160;&#160;&#160;</text>
<text text-anchor="start" x="589.49" y="-97.7" font-family="monospace" font-size="6.00">video/x&#45;h264</text>
<text text-anchor="start" x="589.49" y="-90.7" font-family="monospace" font-size="6.00"> &#160;&#160;&#160;&#160;&#160;&#160;&#160;&#160;&#160;&#160;alignment: au</text>
<text text-anchor="start" x="589.49" y="-83.7" font-family="monospace" font-size="6.00"> &#160;&#160;&#160;&#160;&#160;&#160;stream&#45;format: { (string)avc, (stri... }</text>
<text text-anchor="start" x="449.52" y="-108.2" font-family="monospace" font-size="6.00">video/x&#45;h264</text>
<text text-anchor="start" x="449.52" y="-101.2" font-family="monospace" font-size="6.00"> &#160;&#160;&#160;&#160;&#160;&#160;stream&#45;format: avc</text>
<text text-anchor="start" x="449.52" y="-94.2" font-family="monospace" font-size="6.00"> &#160;&#160;&#160;&#160;&#160;&#160;&#160;&#160;&#160;&#160;alignment: au</text>
<text text-anchor="start" x="449.52" y="-87.2" font-family="monospace" font-size="6.00">video/x&#45;h264</text>
<text text-anchor="start" x="449.52" y="-80.2" font-family="monospace" font-size="6.00"> &#160;&#160;&#160;&#160;&#160;&#160;stream&#45;format: byte&#45;stream</text>
<text text-anchor="start" x="449.52" y="-73.2" font-family="monospace" font-size="6.00"> &#160;&#160;&#160;&#160;&#160;&#160;&#160;&#160;&#160;&#160;alignment: { (string)nal, (stri... }</text>
</g>
</g>
</svg>
